G04*
G04 #@! TF.GenerationSoftware,Altium Limited,Altium Designer,20.0.13 (296)*
G04*
G04 Layer_Color=128*
%FSLAX44Y44*%
%MOMM*%
G71*
G01*
G75*
%ADD35R,0.8000X0.9650*%
%ADD38R,0.9650X0.8000*%
%ADD39R,0.7620X0.7620*%
%ADD47R,0.7620X0.7620*%
%ADD119R,1.2000X1.3000*%
%ADD120P,1.0776X4X360.0*%
%ADD121P,1.0776X4X270.0*%
D35*
X249010Y333050D02*
D03*
X233010D02*
D03*
X313760Y227800D02*
D03*
X329760D02*
D03*
X428010Y100800D02*
D03*
X444010D02*
D03*
X397010D02*
D03*
X413010D02*
D03*
X264260Y332800D02*
D03*
X280260Y332800D02*
D03*
D38*
X394010Y336550D02*
D03*
Y352550D02*
D03*
X363010Y336550D02*
D03*
Y352550D02*
D03*
X211260Y560550D02*
D03*
Y544550D02*
D03*
X213010Y320800D02*
D03*
Y304800D02*
D03*
D39*
X260583Y118882D02*
D03*
X274553Y119136D02*
D03*
X403010Y185800D02*
D03*
X389040Y185546D02*
D03*
X396980Y126054D02*
D03*
X383010Y125800D02*
D03*
X349010Y99050D02*
D03*
X362980Y99304D02*
D03*
X617520Y321904D02*
D03*
X603550Y321650D02*
D03*
D47*
X191510Y574800D02*
D03*
X191764Y560830D02*
D03*
X362756Y189270D02*
D03*
X363010Y175300D02*
D03*
X324006Y138770D02*
D03*
X324260Y124800D02*
D03*
D119*
X384510Y166300D02*
D03*
Y145300D02*
D03*
X401510D02*
D03*
Y166300D02*
D03*
D120*
X487952Y90499D02*
D03*
X498010Y80800D02*
D03*
D121*
X509760Y242550D02*
D03*
X500061Y232492D02*
D03*
M02*
