G04*
G04 #@! TF.GenerationSoftware,Altium Limited,Altium Designer,20.0.13 (296)*
G04*
G04 Layer_Color=8388736*
%FSLAX44Y44*%
%MOMM*%
G71*
G01*
G75*
%ADD57R,1.0032X1.1682*%
%ADD58R,1.4732X1.1176*%
%ADD59R,1.1176X1.1176*%
%ADD60R,1.1682X1.0032*%
%ADD61R,0.9652X0.9652*%
%ADD62R,1.6782X0.5032*%
%ADD63R,0.5032X1.6782*%
%ADD64R,1.6032X0.6032*%
%ADD65R,1.2032X1.7032*%
%ADD66R,2.2032X3.2032*%
%ADD67R,2.2032X1.7032*%
%ADD68R,1.4732X1.0922*%
%ADD69R,0.9652X0.9652*%
%ADD70R,1.2532X0.8032*%
%ADD71R,3.2032X1.7032*%
%ADD72R,3.2032X2.2032*%
%ADD73R,1.4732X1.7272*%
%ADD74R,1.1176X1.4732*%
%ADD75R,1.1176X1.1176*%
%ADD76R,1.0922X1.4732*%
%ADD77R,1.8032X1.0032*%
%ADD78R,3.2032X2.2032*%
%ADD79R,1.7032X1.7032*%
%ADD80C,1.7032*%
%ADD81R,1.7032X1.7032*%
%ADD82C,0.8032*%
%ADD83O,2.7032X1.4032*%
%ADD84C,2.1032*%
%ADD85R,2.1032X2.1032*%
%ADD86R,2.1032X2.1032*%
%ADD87R,1.4032X1.4032*%
%ADD88C,1.4032*%
%ADD89R,2.7032X2.0032*%
%ADD90O,2.7032X2.0032*%
%ADD91R,2.0032X2.7032*%
%ADD92O,2.0032X2.7032*%
%ADD93C,0.9032*%
%ADD94C,1.1032*%
%ADD95C,1.2032*%
%ADD96C,5.2032*%
D57*
X84330Y404368D02*
D03*
X100330D02*
D03*
X584200Y483870D02*
D03*
X568200D02*
D03*
X469520Y303960D02*
D03*
X485520D02*
D03*
X469520Y285050D02*
D03*
X485520D02*
D03*
X135888Y656590D02*
D03*
X119888D02*
D03*
X71260Y655800D02*
D03*
X87260D02*
D03*
X112010Y580800D02*
D03*
X128010D02*
D03*
X44958Y581660D02*
D03*
X60958D02*
D03*
X325010Y273050D02*
D03*
X341010D02*
D03*
X101090Y467868D02*
D03*
X85090D02*
D03*
X568200Y509270D02*
D03*
X584200D02*
D03*
D58*
X29210Y413258D02*
D03*
X30301Y474878D02*
D03*
D59*
X49530Y422656D02*
D03*
Y403606D02*
D03*
X50621Y465226D02*
D03*
Y484276D02*
D03*
D60*
X-6740Y430550D02*
D03*
Y446550D02*
D03*
X113010Y560800D02*
D03*
Y544800D02*
D03*
X44958Y563370D02*
D03*
X44958Y547370D02*
D03*
X-6350Y473458D02*
D03*
Y489458D02*
D03*
X67310Y483868D02*
D03*
Y467868D02*
D03*
Y420878D02*
D03*
Y404878D02*
D03*
D61*
X246980Y270546D02*
D03*
X233010Y270800D02*
D03*
X341510Y249550D02*
D03*
X355480Y249296D02*
D03*
X498480Y51796D02*
D03*
X484510Y52050D02*
D03*
X284480Y220980D02*
D03*
X270510Y221234D02*
D03*
X265430Y202946D02*
D03*
X251460Y203200D02*
D03*
D62*
X495210Y181130D02*
D03*
Y171130D02*
D03*
Y176130D02*
D03*
X495210Y186130D02*
D03*
X495210Y211130D02*
D03*
Y206130D02*
D03*
Y201130D02*
D03*
Y196130D02*
D03*
Y191130D02*
D03*
Y166130D02*
D03*
Y161130D02*
D03*
X495210Y156130D02*
D03*
Y151130D02*
D03*
Y146130D02*
D03*
X495210Y141130D02*
D03*
Y136130D02*
D03*
Y131130D02*
D03*
Y126130D02*
D03*
Y121130D02*
D03*
X495210Y116130D02*
D03*
X495210Y111130D02*
D03*
Y106130D02*
D03*
Y101130D02*
D03*
Y96130D02*
D03*
Y91130D02*
D03*
X340450D02*
D03*
Y96130D02*
D03*
Y101130D02*
D03*
Y106130D02*
D03*
Y111130D02*
D03*
X340450Y116130D02*
D03*
X340450Y121130D02*
D03*
Y126130D02*
D03*
Y131130D02*
D03*
Y136130D02*
D03*
Y141130D02*
D03*
X340450Y146130D02*
D03*
Y151130D02*
D03*
Y156130D02*
D03*
X340450Y161130D02*
D03*
Y166130D02*
D03*
Y171130D02*
D03*
Y176130D02*
D03*
Y181130D02*
D03*
X340450Y186130D02*
D03*
X340450Y191130D02*
D03*
Y196130D02*
D03*
Y201130D02*
D03*
Y206130D02*
D03*
Y211130D02*
D03*
D63*
X357830Y228510D02*
D03*
X362830D02*
D03*
X367830D02*
D03*
X372830D02*
D03*
X377830D02*
D03*
X382830Y228510D02*
D03*
X387830Y228510D02*
D03*
X392830D02*
D03*
X397830D02*
D03*
X402830D02*
D03*
X407830D02*
D03*
X412830Y228510D02*
D03*
X417830D02*
D03*
X422830D02*
D03*
X427830Y228510D02*
D03*
X432830D02*
D03*
X437830D02*
D03*
X442830D02*
D03*
X447830D02*
D03*
X452830Y228510D02*
D03*
X457830Y228510D02*
D03*
X462830D02*
D03*
X467830D02*
D03*
X472830D02*
D03*
X477830D02*
D03*
Y73750D02*
D03*
X472830D02*
D03*
X467830D02*
D03*
X462830D02*
D03*
X457830D02*
D03*
X452830Y73750D02*
D03*
X447830Y73750D02*
D03*
X442830D02*
D03*
X437830D02*
D03*
X432830D02*
D03*
X427830D02*
D03*
X422830Y73750D02*
D03*
X417830D02*
D03*
X412830D02*
D03*
X407830Y73750D02*
D03*
X402830D02*
D03*
X397830D02*
D03*
X392830D02*
D03*
X387830D02*
D03*
X382830Y73750D02*
D03*
X377830Y73750D02*
D03*
X372830D02*
D03*
X367830D02*
D03*
X362830D02*
D03*
X357830D02*
D03*
D64*
X610814Y505897D02*
D03*
Y499420D02*
D03*
X610814Y492943D02*
D03*
X610814Y486466D02*
D03*
Y512374D02*
D03*
D65*
X612484Y531420D02*
D03*
Y467420D02*
D03*
D66*
X635000Y431800D02*
D03*
X584200D02*
D03*
D67*
X571491Y370812D02*
D03*
X650819Y371012D02*
D03*
X651128Y323120D02*
D03*
X571800Y322920D02*
D03*
X226742Y117910D02*
D03*
X306070Y118110D02*
D03*
D68*
X511250Y283613D02*
D03*
X529030Y283613D02*
D03*
X511250Y303960D02*
D03*
X529030Y303960D02*
D03*
X119887Y636205D02*
D03*
X137667Y636205D02*
D03*
X52578Y637540D02*
D03*
X70358Y637540D02*
D03*
D69*
X517764Y231520D02*
D03*
X517510Y217550D02*
D03*
X297756Y161330D02*
D03*
X298010Y175300D02*
D03*
X233760Y163300D02*
D03*
X234014Y177270D02*
D03*
X209550Y242570D02*
D03*
X209296Y228600D02*
D03*
D70*
X279578Y176049D02*
D03*
Y157049D02*
D03*
X251078D02*
D03*
Y166549D02*
D03*
Y176049D02*
D03*
X228050Y288950D02*
D03*
X228050Y298450D02*
D03*
X228050Y307950D02*
D03*
X254550D02*
D03*
X254550Y298450D02*
D03*
X254550Y288950D02*
D03*
D71*
X238761Y250759D02*
D03*
Y226759D02*
D03*
D72*
X284480Y297180D02*
D03*
Y246380D02*
D03*
X581660Y561340D02*
D03*
Y612140D02*
D03*
D73*
X198010Y295800D02*
D03*
X198010Y272940D02*
D03*
D74*
X120650Y618490D02*
D03*
X53340Y619760D02*
D03*
D75*
X130048Y598170D02*
D03*
X110998D02*
D03*
X62738Y599440D02*
D03*
X43688D02*
D03*
D76*
X12700Y491998D02*
D03*
X12700Y474218D02*
D03*
X12765Y431037D02*
D03*
X12765Y413257D02*
D03*
D77*
X34456Y229708D02*
D03*
Y217208D02*
D03*
X34456Y204708D02*
D03*
X34456Y192208D02*
D03*
X35726Y351628D02*
D03*
X35726Y339128D02*
D03*
Y326628D02*
D03*
Y314128D02*
D03*
D78*
X6350Y257140D02*
D03*
Y164500D02*
D03*
X7620Y379060D02*
D03*
Y286420D02*
D03*
D79*
X558800Y6350D02*
D03*
Y289560D02*
D03*
X536090Y383130D02*
D03*
X166090Y408385D02*
D03*
D80*
X558800Y31750D02*
D03*
Y57150D02*
D03*
X307340Y17780D02*
D03*
X281940D02*
D03*
X256540D02*
D03*
X231140D02*
D03*
X205740D02*
D03*
X180340D02*
D03*
X154940D02*
D03*
X129540D02*
D03*
X558800Y264160D02*
D03*
Y238760D02*
D03*
Y213360D02*
D03*
Y187960D02*
D03*
Y162560D02*
D03*
Y137160D02*
D03*
Y111760D02*
D03*
Y86360D02*
D03*
X500380Y19050D02*
D03*
X525780D02*
D03*
X443230Y601980D02*
D03*
X417830D02*
D03*
X232410Y600710D02*
D03*
X257810D02*
D03*
X536090Y611730D02*
D03*
Y586330D02*
D03*
Y560930D02*
D03*
Y535530D02*
D03*
Y510130D02*
D03*
Y484730D02*
D03*
Y459330D02*
D03*
Y433930D02*
D03*
Y408530D02*
D03*
X166090Y433785D02*
D03*
Y459185D02*
D03*
Y484585D02*
D03*
Y509985D02*
D03*
Y535385D02*
D03*
Y560785D02*
D03*
Y586185D02*
D03*
Y611585D02*
D03*
X365760Y19050D02*
D03*
X391160D02*
D03*
X416560D02*
D03*
D81*
X332740Y17780D02*
D03*
X474980Y19050D02*
D03*
X468630Y601980D02*
D03*
X283210Y600710D02*
D03*
X441960Y19050D02*
D03*
D82*
X614540Y519420D02*
D03*
X614540Y479420D02*
D03*
D83*
X637540Y471170D02*
D03*
Y527670D02*
D03*
D84*
X135890Y184150D02*
D03*
X186690Y101600D02*
D03*
D85*
X135890Y234950D02*
D03*
D86*
Y101600D02*
D03*
D87*
X494030Y414020D02*
D03*
D88*
Y429020D02*
D03*
D89*
X77470Y106680D02*
D03*
D90*
Y81280D02*
D03*
D91*
X60960Y2540D02*
D03*
D92*
X86360D02*
D03*
D93*
X324260Y116300D02*
D03*
X317010Y138050D02*
D03*
X287570Y118110D02*
D03*
X362830Y89480D02*
D03*
X228010Y315800D02*
D03*
X254260Y319050D02*
D03*
X356260Y255300D02*
D03*
X208260Y204800D02*
D03*
X53352Y229708D02*
D03*
X16872Y339128D02*
D03*
X5188Y326628D02*
D03*
X3918Y204708D02*
D03*
X15602Y217208D02*
D03*
X313260Y175300D02*
D03*
X378510Y336550D02*
D03*
X363010Y167050D02*
D03*
X490210Y73750D02*
D03*
X495260Y227550D02*
D03*
X590510Y374800D02*
D03*
X397830Y560730D02*
D03*
X591510Y321800D02*
D03*
X477510Y269300D02*
D03*
X465260Y278800D02*
D03*
X454510Y287714D02*
D03*
X422830Y90730D02*
D03*
X475260Y148050D02*
D03*
X475760Y131300D02*
D03*
X413010Y165800D02*
D03*
X373010Y145800D02*
D03*
D94*
X373260Y111800D02*
D03*
X327760Y64300D02*
D03*
X379010Y99800D02*
D03*
X-6740Y460004D02*
D03*
X100510Y656050D02*
D03*
D95*
X336540Y414020D02*
D03*
D96*
X632460Y638810D02*
D03*
X5080Y612140D02*
D03*
X0Y0D02*
D03*
X568260Y-53700D02*
D03*
M02*
