G04*
G04 #@! TF.GenerationSoftware,Altium Limited,Altium Designer,20.0.13 (296)*
G04*
G04 Layer_Physical_Order=2*
G04 Layer_Color=16711680*
%FSLAX44Y44*%
%MOMM*%
G71*
G01*
G75*
%ADD17C,0.4000*%
%ADD18C,0.3000*%
%ADD19C,0.5000*%
%ADD35R,0.8000X0.9650*%
%ADD38R,0.9650X0.8000*%
%ADD39R,0.7620X0.7620*%
%ADD47R,0.7620X0.7620*%
%ADD97C,0.8000*%
%ADD98C,0.7000*%
%ADD99C,1.0000*%
%ADD100C,0.6000*%
%ADD101R,1.5000X1.5000*%
%ADD102C,1.5000*%
%ADD103R,1.5000X1.5000*%
%ADD104C,0.6000*%
%ADD105O,2.5000X1.2000*%
%ADD106C,1.9000*%
%ADD107R,1.9000X1.9000*%
%ADD108R,1.9000X1.9000*%
%ADD109R,1.2000X1.2000*%
%ADD110C,1.2000*%
%ADD111R,2.5000X1.8000*%
%ADD112O,2.5000X1.8000*%
%ADD113R,1.8000X2.5000*%
%ADD114O,1.8000X2.5000*%
%ADD115C,0.7000*%
%ADD116C,0.9000*%
%ADD117C,1.0000*%
%ADD118C,5.0000*%
%ADD119R,1.2000X1.3000*%
%ADD120P,1.0776X4X360.0*%
%ADD121P,1.0776X4X270.0*%
G36*
X663691Y647703D02*
Y335300D01*
X509510D01*
X471510Y373300D01*
X360010D01*
X330760Y344050D01*
Y261300D01*
X319118Y249658D01*
X317848Y250184D01*
Y442550D01*
X317499Y444306D01*
X316504Y445794D01*
X218085Y544214D01*
Y550550D01*
X204435D01*
Y538550D01*
X210771D01*
X308672Y440650D01*
Y234625D01*
X307760D01*
Y220975D01*
X308672D01*
Y178333D01*
X308079Y177446D01*
X307652Y175300D01*
X308079Y173154D01*
X309295Y171335D01*
X311114Y170119D01*
X313260Y169692D01*
X315406Y170119D01*
X316293Y170712D01*
X318510D01*
Y157300D01*
X294260Y133050D01*
X224010D01*
X215260Y124300D01*
Y76550D01*
X222768Y69042D01*
X222282Y67869D01*
X174668D01*
X147390Y95147D01*
Y113100D01*
X124390D01*
Y90100D01*
X142343D01*
X170667Y61777D01*
X171824Y61003D01*
X173190Y60731D01*
X216782D01*
X217268Y59558D01*
X193510Y35800D01*
X120760D01*
X115510Y30550D01*
Y-66700D01*
X101449Y-80761D01*
X41907D01*
X-14717Y-24137D01*
X-13925Y-23133D01*
X-12296Y-24132D01*
X-8369Y-25758D01*
X-4237Y-26750D01*
X0Y-27083D01*
X4237Y-26750D01*
X8369Y-25758D01*
X12296Y-24132D01*
X15919Y-21911D01*
X19151Y-19151D01*
X21911Y-15919D01*
X24132Y-12296D01*
X25758Y-8369D01*
X26750Y-4237D01*
X27083Y0D01*
X26750Y4237D01*
X25758Y8369D01*
X24132Y12296D01*
X21911Y15919D01*
X19151Y19151D01*
X15919Y21911D01*
X12296Y24132D01*
X8369Y25758D01*
X4237Y26750D01*
X0Y27083D01*
X-4237Y26750D01*
X-8369Y25758D01*
X-12296Y24132D01*
X-15919Y21911D01*
X-19151Y19151D01*
X-21911Y15919D01*
X-24132Y12296D01*
X-25758Y8369D01*
X-26151Y6731D01*
X-27421Y6881D01*
Y615953D01*
X-21433Y621941D01*
X-20377Y621236D01*
X-20678Y620509D01*
X-21670Y616377D01*
X-22004Y612140D01*
X-21670Y607903D01*
X-20678Y603771D01*
X-19052Y599844D01*
X-16831Y596221D01*
X-14071Y592989D01*
X-10839Y590229D01*
X-7216Y588008D01*
X-3289Y586382D01*
X843Y585390D01*
X5080Y585056D01*
X9317Y585390D01*
X13449Y586382D01*
X17376Y588008D01*
X20999Y590229D01*
X24231Y592989D01*
X26991Y596221D01*
X29212Y599844D01*
X30838Y603771D01*
X31830Y607903D01*
X32164Y612140D01*
X31830Y616377D01*
X30838Y620509D01*
X29212Y624436D01*
X26991Y628059D01*
X24231Y631291D01*
X20999Y634051D01*
X17376Y636272D01*
X13449Y637898D01*
X9317Y638890D01*
X5080Y639224D01*
X843Y638890D01*
X-3289Y637898D01*
X-4016Y637597D01*
X-4721Y638653D01*
X25397Y668771D01*
X642623D01*
X663691Y647703D01*
D02*
G37*
G36*
X508510Y332800D02*
X663691D01*
Y30481D01*
X592894Y-40316D01*
X591633Y-40167D01*
X590171Y-37781D01*
X587411Y-34549D01*
X584179Y-31789D01*
X580556Y-29568D01*
X576629Y-27942D01*
X572497Y-26950D01*
X568260Y-26616D01*
X564023Y-26950D01*
X559891Y-27942D01*
X555964Y-29568D01*
X552341Y-31789D01*
X549109Y-34549D01*
X546349Y-37781D01*
X544128Y-41404D01*
X542502Y-45331D01*
X542173Y-46700D01*
X135510D01*
X117549Y-28739D01*
Y29705D01*
X121605Y33761D01*
X193510D01*
X193510Y33761D01*
X194290Y33916D01*
X194952Y34358D01*
X218710Y58116D01*
X219152Y58778D01*
X219307Y59558D01*
X219747Y60247D01*
X220301Y60731D01*
X322305D01*
X323124Y59664D01*
X324482Y58622D01*
X326063Y57967D01*
X327760Y57744D01*
X329457Y57967D01*
X331038Y58622D01*
X332396Y59664D01*
X333438Y61022D01*
X334093Y62603D01*
X334316Y64300D01*
X334093Y65997D01*
X333438Y67578D01*
X332396Y68936D01*
X331038Y69978D01*
X329457Y70633D01*
X327760Y70856D01*
X326063Y70633D01*
X324482Y69978D01*
X323124Y68936D01*
X322305Y67869D01*
X225801D01*
X225080Y68585D01*
X224807Y69042D01*
X224652Y69822D01*
X224210Y70484D01*
X224210Y70484D01*
X217299Y77395D01*
Y123455D01*
X224855Y131011D01*
X294260D01*
X295040Y131166D01*
X295702Y131608D01*
X305972Y141878D01*
X311800Y136050D01*
X311829Y135904D01*
X313045Y134085D01*
X314864Y132869D01*
X317010Y132442D01*
X319156Y132869D01*
X319280Y132952D01*
X323286D01*
X323326Y132960D01*
X329816D01*
Y144580D01*
X318196D01*
X318196Y144580D01*
Y144580D01*
X317150Y145119D01*
X313182Y149088D01*
X319952Y155858D01*
X320394Y156520D01*
X320549Y157300D01*
Y159339D01*
X321010Y159800D01*
Y170712D01*
X324860D01*
X336172Y159399D01*
Y121951D01*
X335109Y120888D01*
X330070D01*
Y130610D01*
X318450D01*
Y118990D01*
X318450D01*
X318935Y117720D01*
X318652Y116300D01*
X319079Y114154D01*
X320295Y112335D01*
X322114Y111119D01*
X324260Y110692D01*
X326406Y111119D01*
X327293Y111712D01*
X337010D01*
X338766Y112061D01*
X340254Y113056D01*
X344004Y116806D01*
X344999Y118294D01*
X345348Y120050D01*
Y161300D01*
X344999Y163056D01*
X344004Y164544D01*
X330004Y178544D01*
X328516Y179539D01*
X326760Y179888D01*
X321010D01*
Y248550D01*
X333760Y261300D01*
Y344166D01*
X358894Y369300D01*
X472010D01*
X508510Y332800D01*
D02*
G37*
%LPC*%
G36*
X632460Y665893D02*
X628223Y665560D01*
X624091Y664568D01*
X620164Y662942D01*
X616541Y660721D01*
X613309Y657961D01*
X610549Y654729D01*
X608328Y651106D01*
X606702Y647179D01*
X605710Y643047D01*
X605377Y638810D01*
X605710Y634573D01*
X606702Y630441D01*
X608328Y626514D01*
X610549Y622891D01*
X613309Y619659D01*
X616541Y616899D01*
X620164Y614678D01*
X624091Y613052D01*
X628223Y612060D01*
X632460Y611726D01*
X636697Y612060D01*
X640829Y613052D01*
X644756Y614678D01*
X648379Y616899D01*
X651611Y619659D01*
X654371Y622891D01*
X656592Y626514D01*
X658218Y630441D01*
X659210Y634573D01*
X659544Y638810D01*
X659210Y643047D01*
X658218Y647179D01*
X656592Y651106D01*
X654371Y654729D01*
X651611Y657961D01*
X648379Y660721D01*
X644756Y662942D01*
X640829Y664568D01*
X636697Y665560D01*
X632460Y665893D01*
D02*
G37*
G36*
X536090Y621312D02*
X533610Y620985D01*
X531299Y620028D01*
X529314Y618506D01*
X527792Y616521D01*
X526834Y614210D01*
X526508Y611730D01*
X526834Y609250D01*
X527792Y606939D01*
X529314Y604955D01*
X531299Y603432D01*
X533610Y602475D01*
X536090Y602148D01*
X538570Y602475D01*
X540881Y603432D01*
X542865Y604955D01*
X544388Y606939D01*
X545345Y609250D01*
X545672Y611730D01*
X545345Y614210D01*
X544388Y616521D01*
X542865Y618506D01*
X540881Y620028D01*
X538570Y620985D01*
X536090Y621312D01*
D02*
G37*
G36*
X166090Y621167D02*
X163610Y620840D01*
X161299Y619883D01*
X159314Y618360D01*
X157792Y616376D01*
X156834Y614065D01*
X156508Y611585D01*
X156834Y609105D01*
X157792Y606794D01*
X159314Y604810D01*
X161299Y603287D01*
X163610Y602330D01*
X166090Y602003D01*
X168570Y602330D01*
X170881Y603287D01*
X172865Y604810D01*
X174388Y606794D01*
X175345Y609105D01*
X175672Y611585D01*
X175345Y614065D01*
X174388Y616376D01*
X172865Y618360D01*
X170881Y619883D01*
X168570Y620840D01*
X166090Y621167D01*
D02*
G37*
G36*
X478130Y611480D02*
X459130D01*
Y592480D01*
X478130D01*
Y611480D01*
D02*
G37*
G36*
X443230Y611562D02*
X440750Y611236D01*
X438439Y610278D01*
X436455Y608755D01*
X434932Y606771D01*
X433974Y604460D01*
X433648Y601980D01*
X433974Y599500D01*
X434932Y597189D01*
X436455Y595205D01*
X438439Y593682D01*
X440750Y592724D01*
X443230Y592398D01*
X445710Y592724D01*
X448021Y593682D01*
X450005Y595205D01*
X451528Y597189D01*
X452486Y599500D01*
X452812Y601980D01*
X452486Y604460D01*
X451528Y606771D01*
X450005Y608755D01*
X448021Y610278D01*
X445710Y611236D01*
X443230Y611562D01*
D02*
G37*
G36*
X417830D02*
X415350Y611236D01*
X413039Y610278D01*
X411054Y608755D01*
X409532Y606771D01*
X408574Y604460D01*
X408248Y601980D01*
X408574Y599500D01*
X409532Y597189D01*
X411054Y595205D01*
X413039Y593682D01*
X415350Y592724D01*
X417830Y592398D01*
X420310Y592724D01*
X422621Y593682D01*
X424605Y595205D01*
X426128Y597189D01*
X427085Y599500D01*
X427412Y601980D01*
X427085Y604460D01*
X426128Y606771D01*
X424605Y608755D01*
X422621Y610278D01*
X420310Y611236D01*
X417830Y611562D01*
D02*
G37*
G36*
X292710Y610210D02*
X273710D01*
Y591210D01*
X292710D01*
Y610210D01*
D02*
G37*
G36*
X232410Y610292D02*
X229930Y609966D01*
X227619Y609008D01*
X225634Y607485D01*
X224112Y605501D01*
X223155Y603190D01*
X222828Y600710D01*
X223155Y598230D01*
X224112Y595919D01*
X225634Y593935D01*
X227619Y592412D01*
X229930Y591455D01*
X232410Y591128D01*
X234890Y591455D01*
X237201Y592412D01*
X239185Y593935D01*
X240708Y595919D01*
X241665Y598230D01*
X241992Y600710D01*
X241665Y603190D01*
X240708Y605501D01*
X239185Y607485D01*
X237201Y609008D01*
X234890Y609966D01*
X232410Y610292D01*
D02*
G37*
G36*
X536090Y595912D02*
X533610Y595586D01*
X531299Y594628D01*
X529314Y593106D01*
X527792Y591121D01*
X526834Y588810D01*
X526508Y586330D01*
X526834Y583850D01*
X527792Y581539D01*
X529314Y579555D01*
X531299Y578032D01*
X533610Y577075D01*
X536090Y576748D01*
X538570Y577075D01*
X540881Y578032D01*
X542865Y579555D01*
X544388Y581539D01*
X545345Y583850D01*
X545672Y586330D01*
X545345Y588810D01*
X544388Y591121D01*
X542865Y593106D01*
X540881Y594628D01*
X538570Y595586D01*
X536090Y595912D01*
D02*
G37*
G36*
X166090Y595767D02*
X163610Y595440D01*
X161299Y594483D01*
X159314Y592961D01*
X157792Y590976D01*
X156834Y588665D01*
X156508Y586185D01*
X156834Y583705D01*
X157792Y581394D01*
X159314Y579410D01*
X161299Y577887D01*
X163610Y576930D01*
X166090Y576603D01*
X168570Y576930D01*
X170881Y577887D01*
X172865Y579410D01*
X174388Y581394D01*
X175345Y583705D01*
X175672Y586185D01*
X175345Y588665D01*
X174388Y590976D01*
X172865Y592961D01*
X170881Y594483D01*
X168570Y595440D01*
X166090Y595767D01*
D02*
G37*
G36*
X536090Y570512D02*
X533610Y570186D01*
X531299Y569228D01*
X529314Y567705D01*
X527792Y565721D01*
X526834Y563410D01*
X526508Y560930D01*
X526834Y558450D01*
X527792Y556139D01*
X529314Y554155D01*
X531299Y552632D01*
X533610Y551675D01*
X536090Y551348D01*
X538570Y551675D01*
X540881Y552632D01*
X542865Y554155D01*
X544388Y556139D01*
X545345Y558450D01*
X545672Y560930D01*
X545345Y563410D01*
X544388Y565721D01*
X542865Y567705D01*
X540881Y569228D01*
X538570Y570186D01*
X536090Y570512D01*
D02*
G37*
G36*
Y545112D02*
X533610Y544785D01*
X531299Y543828D01*
X529314Y542305D01*
X527792Y540321D01*
X526834Y538010D01*
X526508Y535530D01*
X526834Y533050D01*
X527792Y530739D01*
X529314Y528755D01*
X531299Y527232D01*
X533610Y526274D01*
X536090Y525948D01*
X538570Y526274D01*
X540881Y527232D01*
X542865Y528755D01*
X544388Y530739D01*
X545345Y533050D01*
X545672Y535530D01*
X545345Y538010D01*
X544388Y540321D01*
X542865Y542305D01*
X540881Y543828D01*
X538570Y544785D01*
X536090Y545112D01*
D02*
G37*
G36*
X166090Y544967D02*
X163610Y544641D01*
X161299Y543683D01*
X159314Y542160D01*
X157792Y540176D01*
X156834Y537865D01*
X156508Y535385D01*
X156834Y532905D01*
X157792Y530594D01*
X159314Y528610D01*
X161299Y527087D01*
X163610Y526130D01*
X166090Y525803D01*
X168570Y526130D01*
X170881Y527087D01*
X172865Y528610D01*
X174388Y530594D01*
X175345Y532905D01*
X175672Y535385D01*
X175345Y537865D01*
X174388Y540176D01*
X172865Y542160D01*
X170881Y543683D01*
X168570Y544641D01*
X166090Y544967D01*
D02*
G37*
G36*
X644040Y535739D02*
X631040D01*
X628952Y535464D01*
X627006Y534658D01*
X625334Y533376D01*
X624052Y531704D01*
X623246Y529758D01*
X622971Y527670D01*
X623246Y525582D01*
X624052Y523635D01*
X625334Y521964D01*
X627006Y520682D01*
X628952Y519876D01*
X631040Y519601D01*
X644040D01*
X646128Y519876D01*
X648074Y520682D01*
X649746Y521964D01*
X651028Y523635D01*
X651834Y525582D01*
X652109Y527670D01*
X651834Y529758D01*
X651028Y531704D01*
X649746Y533376D01*
X648074Y534658D01*
X646128Y535464D01*
X644040Y535739D01*
D02*
G37*
G36*
X614540Y525028D02*
X612394Y524601D01*
X610575Y523385D01*
X609359Y521566D01*
X608932Y519420D01*
X609359Y517274D01*
X610575Y515455D01*
X612394Y514239D01*
X614540Y513812D01*
X616686Y514239D01*
X618505Y515455D01*
X619721Y517274D01*
X620148Y519420D01*
X619721Y521566D01*
X618505Y523385D01*
X616686Y524601D01*
X614540Y525028D01*
D02*
G37*
G36*
X536090Y519712D02*
X533610Y519385D01*
X531299Y518428D01*
X529314Y516906D01*
X527792Y514921D01*
X526834Y512610D01*
X526508Y510130D01*
X526834Y507650D01*
X527792Y505339D01*
X529314Y503355D01*
X531299Y501832D01*
X533610Y500875D01*
X536090Y500548D01*
X538570Y500875D01*
X540881Y501832D01*
X542865Y503355D01*
X544388Y505339D01*
X545345Y507650D01*
X545672Y510130D01*
X545345Y512610D01*
X544388Y514921D01*
X542865Y516906D01*
X540881Y518428D01*
X538570Y519385D01*
X536090Y519712D01*
D02*
G37*
G36*
X166090Y519567D02*
X163610Y519240D01*
X161299Y518283D01*
X159314Y516760D01*
X157792Y514776D01*
X156834Y512465D01*
X156508Y509985D01*
X156834Y507505D01*
X157792Y505194D01*
X159314Y503210D01*
X161299Y501687D01*
X163610Y500730D01*
X166090Y500403D01*
X168570Y500730D01*
X170881Y501687D01*
X172865Y503210D01*
X174388Y505194D01*
X175345Y507505D01*
X175672Y509985D01*
X175345Y512465D01*
X174388Y514776D01*
X172865Y516760D01*
X170881Y518283D01*
X168570Y519240D01*
X166090Y519567D01*
D02*
G37*
G36*
X536090Y494312D02*
X533610Y493985D01*
X531299Y493028D01*
X529314Y491506D01*
X527792Y489521D01*
X526834Y487210D01*
X526508Y484730D01*
X526834Y482250D01*
X527792Y479939D01*
X529314Y477955D01*
X531299Y476432D01*
X533610Y475475D01*
X536090Y475148D01*
X538570Y475475D01*
X540881Y476432D01*
X542865Y477955D01*
X544388Y479939D01*
X545345Y482250D01*
X545672Y484730D01*
X545345Y487210D01*
X544388Y489521D01*
X542865Y491506D01*
X540881Y493028D01*
X538570Y493985D01*
X536090Y494312D01*
D02*
G37*
G36*
X166090Y494167D02*
X163610Y493840D01*
X161299Y492883D01*
X159314Y491361D01*
X157792Y489376D01*
X156834Y487065D01*
X156508Y484585D01*
X156834Y482105D01*
X157792Y479794D01*
X159314Y477810D01*
X161299Y476287D01*
X163610Y475330D01*
X166090Y475003D01*
X168570Y475330D01*
X170881Y476287D01*
X172865Y477810D01*
X174388Y479794D01*
X175345Y482105D01*
X175672Y484585D01*
X175345Y487065D01*
X174388Y489376D01*
X172865Y491361D01*
X170881Y492883D01*
X168570Y493840D01*
X166090Y494167D01*
D02*
G37*
G36*
X614540Y485028D02*
X612394Y484601D01*
X610575Y483385D01*
X609359Y481566D01*
X608932Y479420D01*
X609359Y477274D01*
X610575Y475455D01*
X612394Y474239D01*
X614540Y473812D01*
X616686Y474239D01*
X618505Y475455D01*
X619721Y477274D01*
X620148Y479420D01*
X619721Y481566D01*
X618505Y483385D01*
X616686Y484601D01*
X614540Y485028D01*
D02*
G37*
G36*
X644040Y479239D02*
X631040D01*
X628952Y478964D01*
X627006Y478158D01*
X625334Y476876D01*
X624052Y475205D01*
X623246Y473258D01*
X622971Y471170D01*
X623246Y469082D01*
X624052Y467136D01*
X625334Y465464D01*
X627006Y464182D01*
X628952Y463376D01*
X631040Y463101D01*
X644040D01*
X646128Y463376D01*
X648074Y464182D01*
X649746Y465464D01*
X651028Y467136D01*
X651834Y469082D01*
X652109Y471170D01*
X651834Y473258D01*
X651028Y475205D01*
X649746Y476876D01*
X648074Y478158D01*
X646128Y478964D01*
X644040Y479239D01*
D02*
G37*
G36*
X166090Y468767D02*
X163610Y468441D01*
X161299Y467483D01*
X159314Y465961D01*
X157792Y463976D01*
X156834Y461665D01*
X156508Y459185D01*
X156834Y456705D01*
X157792Y454394D01*
X159314Y452410D01*
X161299Y450887D01*
X163610Y449930D01*
X166090Y449603D01*
X168570Y449930D01*
X170881Y450887D01*
X172865Y452410D01*
X174388Y454394D01*
X175345Y456705D01*
X175672Y459185D01*
X175345Y461665D01*
X174388Y463976D01*
X172865Y465961D01*
X170881Y467483D01*
X168570Y468441D01*
X166090Y468767D01*
D02*
G37*
G36*
Y443367D02*
X163610Y443040D01*
X161299Y442083D01*
X159314Y440560D01*
X157792Y438576D01*
X156834Y436265D01*
X156508Y433785D01*
X156834Y431305D01*
X157792Y428994D01*
X159314Y427010D01*
X161299Y425487D01*
X163610Y424529D01*
X166090Y424203D01*
X168570Y424529D01*
X170881Y425487D01*
X172865Y427010D01*
X174388Y428994D01*
X175345Y431305D01*
X175672Y433785D01*
X175345Y436265D01*
X174388Y438576D01*
X172865Y440560D01*
X170881Y442083D01*
X168570Y443040D01*
X166090Y443367D01*
D02*
G37*
G36*
X502030Y422020D02*
X486030D01*
Y421080D01*
X336540D01*
X334713Y420840D01*
X333010Y420135D01*
X331548Y419012D01*
X330426Y417550D01*
X329720Y415847D01*
X329480Y414020D01*
X329720Y412193D01*
X330426Y410490D01*
X331548Y409028D01*
X333010Y407906D01*
X334713Y407200D01*
X336540Y406960D01*
X486030D01*
Y406020D01*
X502030D01*
Y422020D01*
D02*
G37*
G36*
X536090Y418112D02*
X533610Y417785D01*
X531299Y416828D01*
X529314Y415305D01*
X527792Y413321D01*
X526834Y411010D01*
X526508Y408530D01*
X526834Y406050D01*
X527792Y403739D01*
X529314Y401755D01*
X531299Y400232D01*
X533610Y399275D01*
X536090Y398948D01*
X538570Y399275D01*
X540881Y400232D01*
X542865Y401755D01*
X544388Y403739D01*
X545345Y406050D01*
X545672Y408530D01*
X545345Y411010D01*
X544388Y413321D01*
X542865Y415305D01*
X540881Y416828D01*
X538570Y417785D01*
X536090Y418112D01*
D02*
G37*
G36*
X175590Y417885D02*
X156590D01*
Y398885D01*
X175590D01*
Y417885D01*
D02*
G37*
G36*
X545590Y392630D02*
X526590D01*
Y373630D01*
X545590D01*
Y392630D01*
D02*
G37*
G36*
X534760Y650667D02*
X515760D01*
X513419Y650202D01*
X511434Y648876D01*
X500184Y637626D01*
X498858Y635641D01*
X498392Y633300D01*
Y604834D01*
X460461Y566903D01*
X173370D01*
X172865Y567561D01*
X170881Y569083D01*
X168570Y570041D01*
X166090Y570367D01*
X163610Y570041D01*
X161299Y569083D01*
X159314Y567561D01*
X157792Y565576D01*
X156834Y563265D01*
X156508Y560785D01*
X156834Y558305D01*
X157792Y555994D01*
X159314Y554010D01*
X161299Y552487D01*
X163610Y551530D01*
X166090Y551203D01*
X168570Y551530D01*
X170881Y552487D01*
X172865Y554010D01*
X173370Y554668D01*
X204435D01*
Y554550D01*
X218085D01*
Y554668D01*
X462995D01*
X465336Y555133D01*
X467321Y556459D01*
X508836Y597974D01*
X510162Y599959D01*
X510628Y602300D01*
Y630766D01*
X518294Y638433D01*
X532495D01*
X533669Y637648D01*
X536010Y637183D01*
X564226D01*
X584393Y617016D01*
Y374800D01*
X584858Y372459D01*
X586184Y370474D01*
X588169Y369148D01*
X590510Y368683D01*
X592851Y369148D01*
X594836Y370474D01*
X596162Y372459D01*
X596628Y374800D01*
Y619550D01*
X596162Y621891D01*
X594836Y623876D01*
X571086Y647626D01*
X569101Y648952D01*
X566760Y649417D01*
X538275D01*
X537101Y650202D01*
X534760Y650667D01*
D02*
G37*
G36*
X169590Y361554D02*
X166316Y361123D01*
X163265Y359859D01*
X160646Y357849D01*
X158636Y355229D01*
X157372Y352179D01*
X156941Y348905D01*
X157372Y345631D01*
X158636Y342580D01*
X160646Y339961D01*
X163265Y337951D01*
X166316Y336687D01*
X169590Y336256D01*
X172864Y336687D01*
X175914Y337951D01*
X178534Y339961D01*
X180544Y342580D01*
X181808Y345631D01*
X182239Y348905D01*
X181808Y352179D01*
X180544Y355229D01*
X178534Y357849D01*
X175914Y359859D01*
X172864Y361123D01*
X169590Y361554D01*
D02*
G37*
G36*
X255010Y339875D02*
X243010D01*
Y326225D01*
X249672D01*
Y322083D01*
X249079Y321196D01*
X248652Y319050D01*
X249079Y316904D01*
X250295Y315085D01*
X252114Y313869D01*
X254260Y313442D01*
X256406Y313869D01*
X258225Y315085D01*
X259441Y316904D01*
X259868Y319050D01*
X259441Y321196D01*
X258848Y322083D01*
Y325975D01*
X270260D01*
Y339625D01*
X258260D01*
Y337513D01*
X255010D01*
Y339875D01*
D02*
G37*
G36*
X219835Y310800D02*
X206185D01*
Y298800D01*
X219835D01*
Y310800D01*
D02*
G37*
G36*
X147390Y246450D02*
X124390D01*
Y223450D01*
X147390D01*
Y246450D01*
D02*
G37*
G36*
X16872Y344736D02*
X14726Y344309D01*
X12907Y343093D01*
X11691Y341274D01*
X11264Y339128D01*
X11691Y336982D01*
X12284Y336095D01*
Y221606D01*
X11637Y221173D01*
X11046Y220289D01*
X9776Y220675D01*
Y323595D01*
X10369Y324482D01*
X10796Y326628D01*
X10369Y328774D01*
X9153Y330593D01*
X7334Y331809D01*
X5188Y332236D01*
X3042Y331809D01*
X1223Y330593D01*
X7Y328774D01*
X-420Y326628D01*
X7Y324482D01*
X600Y323595D01*
Y209106D01*
X-47Y208673D01*
X-1263Y206854D01*
X-1690Y204708D01*
X-1263Y202562D01*
X-47Y200743D01*
X1772Y199527D01*
X3918Y199100D01*
X6064Y199527D01*
X7883Y200743D01*
X9099Y202562D01*
X9526Y204708D01*
X9471Y204984D01*
X9776Y206519D01*
Y213741D01*
X11046Y214127D01*
X11637Y213243D01*
X13456Y212027D01*
X15602Y211600D01*
X17748Y212027D01*
X19567Y213243D01*
X20783Y215062D01*
X21210Y217208D01*
X21155Y217484D01*
X21460Y219019D01*
Y336095D01*
X22053Y336982D01*
X22480Y339128D01*
X22053Y341274D01*
X20837Y343093D01*
X19018Y344309D01*
X16872Y344736D01*
D02*
G37*
G36*
X100510Y662606D02*
X98813Y662383D01*
X97232Y661728D01*
X95874Y660686D01*
X94832Y659328D01*
X94177Y657747D01*
X93954Y656050D01*
X94177Y654353D01*
X94392Y653834D01*
Y569834D01*
X-9577Y465864D01*
X-10018Y465682D01*
X-11376Y464640D01*
X-12418Y463282D01*
X-13073Y461701D01*
X-13296Y460004D01*
X-13073Y458307D01*
X-12418Y456726D01*
X-11376Y455368D01*
X-10018Y454326D01*
X-9499Y454111D01*
X202143Y242470D01*
Y210408D01*
X114333D01*
X91067Y233673D01*
X89248Y234889D01*
X87102Y235316D01*
X53352D01*
X51206Y234889D01*
X49387Y233673D01*
X48171Y231854D01*
X47744Y229708D01*
X48171Y227562D01*
X49387Y225743D01*
X51206Y224527D01*
X53352Y224100D01*
X84779D01*
X108045Y200835D01*
X109864Y199619D01*
X112010Y199192D01*
X205853D01*
X205919Y199148D01*
X208260Y198682D01*
X210601Y199148D01*
X212586Y200474D01*
X213912Y202459D01*
X214377Y204800D01*
Y205150D01*
X241394Y232166D01*
X241394Y232166D01*
X242278Y233489D01*
X242588Y235050D01*
Y321300D01*
X242588Y321300D01*
X242278Y322861D01*
X241394Y324184D01*
X241394Y324184D01*
X239088Y326489D01*
Y331050D01*
X239010Y331444D01*
Y339875D01*
X227010D01*
Y326225D01*
X230932D01*
Y324800D01*
X230932Y324800D01*
X231242Y323239D01*
X232126Y321916D01*
X234432Y319611D01*
Y318201D01*
X233281Y317965D01*
X233162Y317990D01*
X231975Y319765D01*
X230156Y320981D01*
X228210Y321368D01*
X225894Y323684D01*
X224571Y324568D01*
X223010Y324878D01*
X223010Y324878D01*
X219835D01*
Y326800D01*
X206185D01*
Y314800D01*
X219835D01*
Y316722D01*
X221321D01*
X222442Y315600D01*
X222829Y313654D01*
X224045Y311835D01*
X225864Y310619D01*
X228010Y310192D01*
X230156Y310619D01*
X231975Y311835D01*
X233162Y313610D01*
X233281Y313635D01*
X234432Y313399D01*
Y236739D01*
X215551Y217859D01*
X214377Y218344D01*
Y245004D01*
X213912Y247345D01*
X212586Y249330D01*
X1889Y460027D01*
X104836Y562974D01*
X106162Y564959D01*
X106628Y567300D01*
Y653834D01*
X106843Y654353D01*
X107066Y656050D01*
X106843Y657747D01*
X106188Y659328D01*
X105146Y660686D01*
X103788Y661728D01*
X102207Y662383D01*
X100510Y662606D01*
D02*
G37*
G36*
X91970Y117680D02*
X62970D01*
Y95680D01*
X91970D01*
Y117680D01*
D02*
G37*
G36*
X71960Y17040D02*
X49960D01*
Y-11960D01*
X71960D01*
Y17040D01*
D02*
G37*
G36*
X370375Y359090D02*
X364280D01*
Y353820D01*
X370375D01*
Y359090D01*
D02*
G37*
G36*
X361740D02*
X355645D01*
Y353820D01*
X361740D01*
Y359090D01*
D02*
G37*
G36*
X370375Y351280D02*
X364280D01*
Y346010D01*
X370375D01*
Y351280D01*
D02*
G37*
G36*
X361740D02*
X355645D01*
Y346010D01*
X361740D01*
Y351280D01*
D02*
G37*
G36*
X369835Y342550D02*
X356185D01*
Y330550D01*
X369835D01*
Y332981D01*
X374280D01*
X374545Y332585D01*
X376364Y331369D01*
X378510Y330942D01*
X380656Y331369D01*
X382475Y332585D01*
X382740Y332981D01*
X387185D01*
Y330550D01*
X400835D01*
Y342550D01*
X387185D01*
Y340119D01*
X382740D01*
X382475Y340515D01*
X380656Y341731D01*
X378510Y342158D01*
X376364Y341731D01*
X374545Y340515D01*
X374280Y340119D01*
X369835D01*
Y342550D01*
D02*
G37*
G36*
X609360Y327460D02*
X597740D01*
Y325219D01*
X595840D01*
X595475Y325765D01*
X593656Y326981D01*
X591510Y327408D01*
X589364Y326981D01*
X587545Y325765D01*
X587179Y325219D01*
X529860D01*
X528494Y324947D01*
X527337Y324173D01*
X477978Y274815D01*
X477510Y274908D01*
X475364Y274481D01*
X473545Y273265D01*
X472329Y271446D01*
X472138Y270484D01*
X470868Y270609D01*
Y278800D01*
X470441Y280946D01*
X469225Y282765D01*
X467406Y283981D01*
X465260Y284408D01*
X463114Y283981D01*
X461388Y282827D01*
X460205Y283096D01*
X460118Y283122D01*
Y287714D01*
X459691Y289860D01*
X458475Y291679D01*
X456656Y292895D01*
X454510Y293322D01*
X452364Y292895D01*
X450545Y291679D01*
X449329Y289860D01*
X448902Y287714D01*
Y152550D01*
X449329Y150404D01*
X450545Y148585D01*
X471795Y127335D01*
X473614Y126119D01*
X475760Y125692D01*
X477906Y126119D01*
X479725Y127335D01*
X480941Y129154D01*
X481368Y131300D01*
X480941Y133446D01*
X479725Y135265D01*
X473491Y141499D01*
X474117Y142670D01*
X475260Y142442D01*
X477406Y142869D01*
X479225Y144085D01*
X480441Y145904D01*
X480868Y148050D01*
X480441Y150196D01*
X479225Y152015D01*
X470868Y160373D01*
Y267991D01*
X472138Y268116D01*
X472329Y267154D01*
X473545Y265335D01*
X475364Y264119D01*
X477510Y263692D01*
X479656Y264119D01*
X481475Y265335D01*
X482691Y267154D01*
X483118Y269300D01*
X483025Y269768D01*
X531338Y318081D01*
X587380D01*
X587545Y317835D01*
X589364Y316619D01*
X591510Y316192D01*
X593656Y316619D01*
X595475Y317835D01*
X595640Y318081D01*
X597740D01*
Y315840D01*
X609360D01*
Y327460D01*
D02*
G37*
G36*
X623870Y328254D02*
X618790D01*
Y323174D01*
X623870D01*
Y328254D01*
D02*
G37*
G36*
X616250D02*
X611170D01*
Y323174D01*
X616250D01*
Y328254D01*
D02*
G37*
G36*
X623870Y320634D02*
X618790D01*
Y315554D01*
X623870D01*
Y320634D01*
D02*
G37*
G36*
X616250D02*
X611170D01*
Y315554D01*
X616250D01*
Y320634D01*
D02*
G37*
G36*
X568840Y299600D02*
X560070D01*
Y290830D01*
X568840D01*
Y299600D01*
D02*
G37*
G36*
X557530D02*
X548760D01*
Y290830D01*
X557530D01*
Y299600D01*
D02*
G37*
G36*
X568840Y288290D02*
X560070D01*
Y279520D01*
X568840D01*
Y288290D01*
D02*
G37*
G36*
X557530D02*
X548760D01*
Y279520D01*
X557530D01*
Y288290D01*
D02*
G37*
G36*
X558800Y273742D02*
X556320Y273416D01*
X554009Y272458D01*
X552024Y270935D01*
X550502Y268951D01*
X549544Y266640D01*
X549218Y264160D01*
X549544Y261680D01*
X550502Y259369D01*
X552024Y257384D01*
X554009Y255862D01*
X556320Y254904D01*
X558800Y254578D01*
X561280Y254904D01*
X563591Y255862D01*
X565575Y257384D01*
X567098Y259369D01*
X568055Y261680D01*
X568382Y264160D01*
X568055Y266640D01*
X567098Y268951D01*
X565575Y270935D01*
X563591Y272458D01*
X561280Y273416D01*
X558800Y273742D01*
D02*
G37*
G36*
X509760Y251530D02*
X506168Y247938D01*
X509760Y244346D01*
X513352Y247938D01*
X509760Y251530D01*
D02*
G37*
G36*
X515148Y246142D02*
X511556Y242550D01*
X515148Y238958D01*
X518740Y242550D01*
X515148Y246142D01*
D02*
G37*
G36*
X504372Y246142D02*
X500780Y242550D01*
X504372Y238958D01*
X507964Y242550D01*
X504372Y246142D01*
D02*
G37*
G36*
X509760Y240754D02*
X506168Y237162D01*
X509760Y233570D01*
X513352Y237162D01*
X509760Y240754D01*
D02*
G37*
G36*
X558800Y248342D02*
X556320Y248015D01*
X554009Y247058D01*
X552024Y245536D01*
X550502Y243551D01*
X549544Y241240D01*
X549218Y238760D01*
X549544Y236280D01*
X550502Y233969D01*
X552024Y231985D01*
X554009Y230462D01*
X556320Y229505D01*
X558800Y229178D01*
X561280Y229505D01*
X563591Y230462D01*
X565575Y231985D01*
X567098Y233969D01*
X568055Y236280D01*
X568382Y238760D01*
X568055Y241240D01*
X567098Y243551D01*
X565575Y245536D01*
X563591Y247058D01*
X561280Y248015D01*
X558800Y248342D01*
D02*
G37*
G36*
Y222942D02*
X556320Y222616D01*
X554009Y221658D01*
X552024Y220135D01*
X550502Y218151D01*
X549544Y215840D01*
X549218Y213360D01*
X549544Y210880D01*
X550502Y208569D01*
X552024Y206585D01*
X554009Y205062D01*
X556320Y204104D01*
X558800Y203778D01*
X561280Y204104D01*
X563591Y205062D01*
X565575Y206585D01*
X567098Y208569D01*
X568055Y210880D01*
X568382Y213360D01*
X568055Y215840D01*
X567098Y218151D01*
X565575Y220135D01*
X563591Y221658D01*
X561280Y222616D01*
X558800Y222942D01*
D02*
G37*
G36*
X369106Y195620D02*
X364026D01*
Y190540D01*
X369106D01*
Y195620D01*
D02*
G37*
G36*
X361486D02*
X356406D01*
Y190540D01*
X361486D01*
Y195620D01*
D02*
G37*
G36*
X395390Y191896D02*
X390310D01*
Y186816D01*
X395390D01*
Y191896D01*
D02*
G37*
G36*
X387770D02*
X382690D01*
Y186816D01*
X387770D01*
Y191896D01*
D02*
G37*
G36*
X369106Y188000D02*
X364026D01*
Y182920D01*
X369106D01*
Y188000D01*
D02*
G37*
G36*
X361486D02*
X356406D01*
Y182920D01*
X361486D01*
Y188000D01*
D02*
G37*
G36*
X395390Y184276D02*
X390310D01*
Y179196D01*
X395390D01*
Y184276D01*
D02*
G37*
G36*
X387770D02*
X382690D01*
Y179196D01*
X387770D01*
Y184276D01*
D02*
G37*
G36*
X558800Y197542D02*
X556320Y197215D01*
X554009Y196258D01*
X552024Y194735D01*
X550502Y192751D01*
X549544Y190440D01*
X549218Y187960D01*
X549544Y185480D01*
X550502Y183169D01*
X552024Y181185D01*
X554009Y179662D01*
X556320Y178704D01*
X558800Y178378D01*
X561280Y178704D01*
X563591Y179662D01*
X565575Y181185D01*
X567098Y183169D01*
X568055Y185480D01*
X568382Y187960D01*
X568055Y190440D01*
X567098Y192751D01*
X565575Y194735D01*
X563591Y196258D01*
X561280Y197215D01*
X558800Y197542D01*
D02*
G37*
G36*
X408820Y191610D02*
X397200D01*
Y179990D01*
X398932D01*
Y174800D01*
X394096Y174800D01*
X393050Y175340D01*
X392464Y175340D01*
X385780D01*
Y166300D01*
Y157260D01*
X393050Y157260D01*
X394096Y157800D01*
X394320Y157800D01*
X409510D01*
Y160177D01*
X410630Y160775D01*
X410864Y160619D01*
X413010Y160192D01*
X415156Y160619D01*
X416975Y161835D01*
X418191Y163654D01*
X418618Y165800D01*
X418191Y167946D01*
X416975Y169765D01*
X415156Y170981D01*
X413010Y171408D01*
X410864Y170981D01*
X410630Y170825D01*
X409510Y171423D01*
Y174800D01*
X407088D01*
Y179990D01*
X408820D01*
Y191610D01*
D02*
G37*
G36*
X383240Y175340D02*
X375970D01*
Y167570D01*
X383240D01*
Y175340D01*
D02*
G37*
G36*
Y165030D02*
X375970D01*
Y157260D01*
X383240D01*
Y165030D01*
D02*
G37*
G36*
X558800Y172142D02*
X556320Y171815D01*
X554009Y170858D01*
X552024Y169335D01*
X550502Y167351D01*
X549544Y165040D01*
X549218Y162560D01*
X549544Y160080D01*
X550502Y157769D01*
X552024Y155785D01*
X554009Y154262D01*
X556320Y153305D01*
X558800Y152978D01*
X561280Y153305D01*
X563591Y154262D01*
X565575Y155785D01*
X567098Y157769D01*
X568055Y160080D01*
X568382Y162560D01*
X568055Y165040D01*
X567098Y167351D01*
X565575Y169335D01*
X563591Y170858D01*
X561280Y171815D01*
X558800Y172142D01*
D02*
G37*
G36*
X402780Y154340D02*
Y146570D01*
X410050D01*
Y154340D01*
X402780D01*
D02*
G37*
G36*
X410050Y144030D02*
X402780D01*
Y136260D01*
X410050D01*
Y144030D01*
D02*
G37*
G36*
X558800Y146742D02*
X556320Y146415D01*
X554009Y145458D01*
X552024Y143935D01*
X550502Y141951D01*
X549544Y139640D01*
X549218Y137160D01*
X549544Y134680D01*
X550502Y132369D01*
X552024Y130385D01*
X554009Y128862D01*
X556320Y127905D01*
X558800Y127578D01*
X561280Y127905D01*
X563591Y128862D01*
X565575Y130385D01*
X567098Y132369D01*
X568055Y134680D01*
X568382Y137160D01*
X568055Y139640D01*
X567098Y141951D01*
X565575Y143935D01*
X563591Y145458D01*
X561280Y146415D01*
X558800Y146742D01*
D02*
G37*
G36*
X403330Y132404D02*
X398250D01*
Y127324D01*
X403330D01*
Y132404D01*
D02*
G37*
G36*
X395710D02*
X390630D01*
Y127324D01*
X395710D01*
Y132404D01*
D02*
G37*
G36*
X266933Y125232D02*
X261853D01*
Y120152D01*
X266933D01*
Y125232D01*
D02*
G37*
G36*
X259313D02*
X254233D01*
Y120152D01*
X259313D01*
Y125232D01*
D02*
G37*
G36*
X403330Y124784D02*
X398250D01*
Y119704D01*
X403330D01*
Y124784D01*
D02*
G37*
G36*
X395710D02*
X390630D01*
Y119704D01*
X395710D01*
Y124784D01*
D02*
G37*
G36*
X266933Y117612D02*
X261853D01*
Y112532D01*
X266933D01*
Y117612D01*
D02*
G37*
G36*
X259313D02*
X254233D01*
Y112532D01*
X259313D01*
Y117612D01*
D02*
G37*
G36*
X280363Y124946D02*
X268743D01*
Y113326D01*
X280363D01*
Y115055D01*
X282997D01*
X283605Y114145D01*
X285424Y112929D01*
X287570Y112502D01*
X289716Y112929D01*
X291535Y114145D01*
X292751Y115964D01*
X293178Y118110D01*
X292751Y120256D01*
X291535Y122075D01*
X289716Y123291D01*
X287570Y123718D01*
X285424Y123291D01*
X283779Y122192D01*
X280363D01*
Y124946D01*
D02*
G37*
G36*
X558800Y121342D02*
X556320Y121016D01*
X554009Y120058D01*
X552024Y118535D01*
X550502Y116551D01*
X549544Y114240D01*
X549218Y111760D01*
X549544Y109280D01*
X550502Y106969D01*
X552024Y104985D01*
X554009Y103462D01*
X556320Y102505D01*
X558800Y102178D01*
X561280Y102505D01*
X563591Y103462D01*
X565575Y104985D01*
X567098Y106969D01*
X568055Y109280D01*
X568382Y111760D01*
X568055Y114240D01*
X567098Y116551D01*
X565575Y118535D01*
X563591Y120058D01*
X561280Y121016D01*
X558800Y121342D01*
D02*
G37*
G36*
X355360Y105400D02*
X350280D01*
Y100320D01*
X355360D01*
Y105400D01*
D02*
G37*
G36*
X347740D02*
X342660D01*
Y100320D01*
X347740D01*
Y105400D01*
D02*
G37*
G36*
X355360Y97780D02*
X350280D01*
Y92700D01*
X355360D01*
Y97780D01*
D02*
G37*
G36*
X347740D02*
X342660D01*
Y92700D01*
X347740D01*
Y97780D01*
D02*
G37*
G36*
X487952Y99479D02*
X484360Y95887D01*
X487952Y92295D01*
X491544Y95887D01*
X487952Y99479D01*
D02*
G37*
G36*
X560070Y96319D02*
Y87630D01*
X568759D01*
X568582Y88981D01*
X567570Y91423D01*
X565961Y93521D01*
X563863Y95130D01*
X561421Y96142D01*
X560070Y96319D01*
D02*
G37*
G36*
X557530D02*
X556179Y96142D01*
X553737Y95130D01*
X551639Y93521D01*
X550030Y91423D01*
X549018Y88981D01*
X548841Y87630D01*
X557530D01*
Y96319D01*
D02*
G37*
G36*
X482564Y94091D02*
X478972Y90499D01*
X482564Y86907D01*
X486156Y90499D01*
X482564Y94091D01*
D02*
G37*
G36*
X487952Y88703D02*
X484360Y85111D01*
X487952Y81518D01*
X491544Y85111D01*
X487952Y88703D01*
D02*
G37*
G36*
X568759Y85090D02*
X560070D01*
Y76401D01*
X561421Y76578D01*
X563863Y77590D01*
X565961Y79199D01*
X567570Y81297D01*
X568582Y83739D01*
X568759Y85090D01*
D02*
G37*
G36*
X557530D02*
X548841D01*
X549018Y83739D01*
X550030Y81297D01*
X551639Y79199D01*
X553737Y77590D01*
X556179Y76578D01*
X557530Y76401D01*
Y85090D01*
D02*
G37*
G36*
X400835Y358550D02*
X387185D01*
Y346550D01*
X400835D01*
Y347452D01*
X407398D01*
X409162Y345688D01*
Y316162D01*
X398655Y305655D01*
X397550Y304001D01*
X397457Y303531D01*
X354479Y260553D01*
X354114Y260481D01*
X352295Y259265D01*
X351079Y257446D01*
X351007Y257081D01*
X328550Y234625D01*
X323760D01*
Y220975D01*
X324662D01*
Y200300D01*
X325050Y198349D01*
X326155Y196695D01*
X357800Y165050D01*
X357822Y164940D01*
Y105114D01*
X357170D01*
Y93494D01*
X357170D01*
X357447Y92224D01*
X357178Y91821D01*
X356712Y89480D01*
X357178Y87139D01*
X358504Y85154D01*
X374234Y69424D01*
X376219Y68098D01*
X378560Y67632D01*
X490960D01*
X493301Y68098D01*
X495286Y69424D01*
X506336Y80474D01*
X507662Y82459D01*
X508128Y84800D01*
Y108300D01*
X507662Y110641D01*
X506336Y112626D01*
X501377Y117584D01*
Y225592D01*
X508278Y232492D01*
X500061Y240709D01*
X491845Y232492D01*
X491845Y232492D01*
X490934Y231876D01*
X490871Y231781D01*
X489608Y229891D01*
X489142Y227550D01*
Y115050D01*
X489608Y112709D01*
X490934Y110724D01*
X495892Y105766D01*
Y93198D01*
X494719Y92712D01*
X493340Y94091D01*
X489748Y90499D01*
X493340Y86907D01*
X493817Y87383D01*
X495195Y86965D01*
X495249Y86691D01*
X488426Y79868D01*
X381094D01*
X368737Y92224D01*
X368790Y93494D01*
X368790D01*
Y105114D01*
X368790D01*
X368777Y105446D01*
X369982Y106122D01*
X371563Y105467D01*
X373260Y105244D01*
X373477Y105272D01*
X374096Y104073D01*
X373332Y103078D01*
X372677Y101497D01*
X372454Y99800D01*
X372677Y98103D01*
X373332Y96522D01*
X374374Y95164D01*
X375732Y94122D01*
X377313Y93467D01*
X379010Y93244D01*
X380707Y93467D01*
X382288Y94122D01*
X383646Y95164D01*
X384688Y96522D01*
X384982Y97231D01*
X391010D01*
Y93975D01*
X403010D01*
X403010Y107625D01*
X404240Y107722D01*
X405780D01*
X407010Y107625D01*
Y93975D01*
X416856D01*
X417460Y93138D01*
X417615Y92705D01*
X417222Y90730D01*
X417649Y88584D01*
X418865Y86765D01*
X420684Y85549D01*
X422830Y85122D01*
X424976Y85549D01*
X426795Y86765D01*
X428011Y88584D01*
X428438Y90730D01*
X428108Y92388D01*
Y93975D01*
X434010D01*
Y104198D01*
X435183Y104684D01*
X438010Y101857D01*
Y93975D01*
X450010D01*
Y107625D01*
X443778D01*
X436719Y114684D01*
X435396Y115568D01*
X433835Y115878D01*
X433835Y115878D01*
X378324D01*
X377896Y116436D01*
X376538Y117478D01*
X374957Y118133D01*
X373260Y118356D01*
X371563Y118133D01*
X369982Y117478D01*
X369288Y116945D01*
X368018Y117571D01*
Y141259D01*
X369288Y141672D01*
X370864Y140619D01*
X373010Y140192D01*
X375156Y140619D01*
X375390Y140775D01*
X376510Y140177D01*
Y136800D01*
X378932D01*
Y131610D01*
X377200D01*
Y119990D01*
X388820D01*
Y131610D01*
X387088D01*
Y136800D01*
X391924Y136800D01*
X392970Y136260D01*
X393556Y136260D01*
X400240D01*
Y145300D01*
Y154340D01*
X392970Y154340D01*
X391924Y153800D01*
X391700Y153800D01*
X376510D01*
Y151423D01*
X375390Y150824D01*
X375156Y150981D01*
X373010Y151408D01*
X370864Y150981D01*
X369288Y149928D01*
X368018Y150340D01*
Y164645D01*
X368191Y164904D01*
X368618Y167050D01*
X368385Y168220D01*
X368820Y169490D01*
X368820D01*
Y181110D01*
X357200D01*
Y181110D01*
X356464Y180805D01*
X334858Y202412D01*
Y220975D01*
X335760D01*
Y227415D01*
X358580Y250235D01*
X360225Y251335D01*
X361325Y252980D01*
X405865Y297520D01*
X406970Y299174D01*
X407063Y299644D01*
X417865Y310445D01*
X418970Y312099D01*
X419358Y314050D01*
Y347800D01*
X418970Y349751D01*
X417865Y351405D01*
X413115Y356155D01*
X411461Y357260D01*
X409510Y357648D01*
X400835D01*
Y358550D01*
D02*
G37*
G36*
X558800Y66732D02*
X556320Y66406D01*
X554009Y65448D01*
X552024Y63925D01*
X550502Y61941D01*
X549544Y59630D01*
X549218Y57150D01*
X549544Y54670D01*
X550502Y52359D01*
X552024Y50374D01*
X554009Y48852D01*
X556320Y47895D01*
X558800Y47568D01*
X561280Y47895D01*
X563591Y48852D01*
X565575Y50374D01*
X567098Y52359D01*
X568055Y54670D01*
X568382Y57150D01*
X568055Y59630D01*
X567098Y61941D01*
X565575Y63925D01*
X563591Y65448D01*
X561280Y66406D01*
X558800Y66732D01*
D02*
G37*
G36*
X560070Y41709D02*
Y33020D01*
X568759D01*
X568582Y34371D01*
X567570Y36813D01*
X565961Y38911D01*
X563863Y40520D01*
X561421Y41532D01*
X560070Y41709D01*
D02*
G37*
G36*
X557530D02*
X556179Y41532D01*
X553737Y40520D01*
X551639Y38911D01*
X550030Y36813D01*
X549018Y34371D01*
X548841Y33020D01*
X557530D01*
Y41709D01*
D02*
G37*
G36*
X568759Y30480D02*
X560070D01*
Y21791D01*
X561421Y21968D01*
X563863Y22980D01*
X565961Y24589D01*
X567570Y26687D01*
X568582Y29129D01*
X568759Y30480D01*
D02*
G37*
G36*
X557530D02*
X548841D01*
X549018Y29129D01*
X550030Y26687D01*
X551639Y24589D01*
X553737Y22980D01*
X556179Y21968D01*
X557530Y21791D01*
Y30480D01*
D02*
G37*
G36*
X452000Y29090D02*
X443230D01*
Y20320D01*
X452000D01*
Y29090D01*
D02*
G37*
G36*
X367030Y29009D02*
Y20320D01*
X375719D01*
X375542Y21671D01*
X374530Y24113D01*
X372921Y26211D01*
X370823Y27820D01*
X368381Y28832D01*
X367030Y29009D01*
D02*
G37*
G36*
X501650D02*
Y20320D01*
X510339D01*
X510162Y21671D01*
X509150Y24113D01*
X507541Y26211D01*
X505443Y27820D01*
X503001Y28832D01*
X501650Y29009D01*
D02*
G37*
G36*
X499110D02*
X497759Y28832D01*
X495317Y27820D01*
X493219Y26211D01*
X491610Y24113D01*
X490598Y21671D01*
X490421Y20320D01*
X499110D01*
Y29009D01*
D02*
G37*
G36*
X364490D02*
X363139Y28832D01*
X360697Y27820D01*
X358599Y26211D01*
X356990Y24113D01*
X355978Y21671D01*
X355801Y20320D01*
X364490D01*
Y29009D01*
D02*
G37*
G36*
X440690Y29090D02*
X431920D01*
Y20320D01*
X440690D01*
Y29090D01*
D02*
G37*
G36*
X342780Y27820D02*
X334010D01*
Y19050D01*
X342780D01*
Y27820D01*
D02*
G37*
G36*
X130810Y27739D02*
Y19050D01*
X139499D01*
X139322Y20401D01*
X138310Y22843D01*
X136701Y24941D01*
X134603Y26550D01*
X132161Y27562D01*
X130810Y27739D01*
D02*
G37*
G36*
X128270D02*
X126919Y27562D01*
X124477Y26550D01*
X122379Y24941D01*
X120770Y22843D01*
X119758Y20401D01*
X119581Y19050D01*
X128270D01*
Y27739D01*
D02*
G37*
G36*
X331470Y27820D02*
X322700D01*
Y19050D01*
X331470D01*
Y27820D01*
D02*
G37*
G36*
X484480Y28550D02*
X465480D01*
Y9550D01*
X484480D01*
Y28550D01*
D02*
G37*
G36*
X525780Y28632D02*
X523300Y28305D01*
X520989Y27348D01*
X519005Y25826D01*
X517482Y23841D01*
X516525Y21530D01*
X516198Y19050D01*
X516525Y16570D01*
X517482Y14259D01*
X519005Y12275D01*
X520989Y10752D01*
X523300Y9794D01*
X525780Y9468D01*
X528260Y9794D01*
X530571Y10752D01*
X532555Y12275D01*
X534078Y14259D01*
X535036Y16570D01*
X535362Y19050D01*
X535036Y21530D01*
X534078Y23841D01*
X532555Y25826D01*
X530571Y27348D01*
X528260Y28305D01*
X525780Y28632D01*
D02*
G37*
G36*
X416560D02*
X414080Y28305D01*
X411769Y27348D01*
X409785Y25826D01*
X408262Y23841D01*
X407304Y21530D01*
X406978Y19050D01*
X407304Y16570D01*
X408262Y14259D01*
X409785Y12275D01*
X411769Y10752D01*
X414080Y9794D01*
X416560Y9468D01*
X419040Y9794D01*
X421351Y10752D01*
X423335Y12275D01*
X424858Y14259D01*
X425816Y16570D01*
X426142Y19050D01*
X425816Y21530D01*
X424858Y23841D01*
X423335Y25826D01*
X421351Y27348D01*
X419040Y28305D01*
X416560Y28632D01*
D02*
G37*
G36*
X391160D02*
X388680Y28305D01*
X386369Y27348D01*
X384384Y25826D01*
X382862Y23841D01*
X381904Y21530D01*
X381578Y19050D01*
X381904Y16570D01*
X382862Y14259D01*
X384384Y12275D01*
X386369Y10752D01*
X388680Y9794D01*
X391160Y9468D01*
X393640Y9794D01*
X395951Y10752D01*
X397935Y12275D01*
X399458Y14259D01*
X400415Y16570D01*
X400742Y19050D01*
X400415Y21530D01*
X399458Y23841D01*
X397935Y25826D01*
X395951Y27348D01*
X393640Y28305D01*
X391160Y28632D01*
D02*
G37*
G36*
X375719Y17780D02*
X367030D01*
Y9091D01*
X368381Y9268D01*
X370823Y10280D01*
X372921Y11889D01*
X374530Y13987D01*
X375542Y16429D01*
X375719Y17780D01*
D02*
G37*
G36*
X510339D02*
X501650D01*
Y9091D01*
X503001Y9268D01*
X505443Y10280D01*
X507541Y11889D01*
X509150Y13987D01*
X510162Y16429D01*
X510339Y17780D01*
D02*
G37*
G36*
X499110D02*
X490421D01*
X490598Y16429D01*
X491610Y13987D01*
X493219Y11889D01*
X495317Y10280D01*
X497759Y9268D01*
X499110Y9091D01*
Y17780D01*
D02*
G37*
G36*
X364490D02*
X355801D01*
X355978Y16429D01*
X356990Y13987D01*
X358599Y11889D01*
X360697Y10280D01*
X363139Y9268D01*
X364490Y9091D01*
Y17780D01*
D02*
G37*
G36*
X452000D02*
X443230D01*
Y9010D01*
X452000D01*
Y17780D01*
D02*
G37*
G36*
X440690D02*
X431920D01*
Y9010D01*
X440690D01*
Y17780D01*
D02*
G37*
G36*
X307340Y27362D02*
X304860Y27036D01*
X302549Y26078D01*
X300565Y24555D01*
X299042Y22571D01*
X298085Y20260D01*
X297758Y17780D01*
X298085Y15300D01*
X299042Y12989D01*
X300565Y11005D01*
X302549Y9482D01*
X304860Y8525D01*
X307340Y8198D01*
X309820Y8525D01*
X312131Y9482D01*
X314116Y11005D01*
X315638Y12989D01*
X316595Y15300D01*
X316922Y17780D01*
X316595Y20260D01*
X315638Y22571D01*
X314116Y24555D01*
X312131Y26078D01*
X309820Y27036D01*
X307340Y27362D01*
D02*
G37*
G36*
X281940D02*
X279460Y27036D01*
X277149Y26078D01*
X275165Y24555D01*
X273642Y22571D01*
X272684Y20260D01*
X272358Y17780D01*
X272684Y15300D01*
X273642Y12989D01*
X275165Y11005D01*
X277149Y9482D01*
X279460Y8525D01*
X281940Y8198D01*
X284420Y8525D01*
X286731Y9482D01*
X288715Y11005D01*
X290238Y12989D01*
X291196Y15300D01*
X291522Y17780D01*
X291196Y20260D01*
X290238Y22571D01*
X288715Y24555D01*
X286731Y26078D01*
X284420Y27036D01*
X281940Y27362D01*
D02*
G37*
G36*
X256540D02*
X254060Y27036D01*
X251749Y26078D01*
X249764Y24555D01*
X248242Y22571D01*
X247285Y20260D01*
X246958Y17780D01*
X247285Y15300D01*
X248242Y12989D01*
X249764Y11005D01*
X251749Y9482D01*
X254060Y8525D01*
X256540Y8198D01*
X259020Y8525D01*
X261331Y9482D01*
X263316Y11005D01*
X264838Y12989D01*
X265795Y15300D01*
X266122Y17780D01*
X265795Y20260D01*
X264838Y22571D01*
X263316Y24555D01*
X261331Y26078D01*
X259020Y27036D01*
X256540Y27362D01*
D02*
G37*
G36*
X231140D02*
X228660Y27036D01*
X226349Y26078D01*
X224364Y24555D01*
X222842Y22571D01*
X221884Y20260D01*
X221558Y17780D01*
X221884Y15300D01*
X222842Y12989D01*
X224364Y11005D01*
X226349Y9482D01*
X228660Y8525D01*
X231140Y8198D01*
X233620Y8525D01*
X235931Y9482D01*
X237915Y11005D01*
X239438Y12989D01*
X240396Y15300D01*
X240722Y17780D01*
X240396Y20260D01*
X239438Y22571D01*
X237915Y24555D01*
X235931Y26078D01*
X233620Y27036D01*
X231140Y27362D01*
D02*
G37*
G36*
X205740D02*
X203260Y27036D01*
X200949Y26078D01*
X198965Y24555D01*
X197442Y22571D01*
X196485Y20260D01*
X196158Y17780D01*
X196485Y15300D01*
X197442Y12989D01*
X198965Y11005D01*
X200949Y9482D01*
X203260Y8525D01*
X205740Y8198D01*
X208220Y8525D01*
X210531Y9482D01*
X212515Y11005D01*
X214038Y12989D01*
X214995Y15300D01*
X215322Y17780D01*
X214995Y20260D01*
X214038Y22571D01*
X212515Y24555D01*
X210531Y26078D01*
X208220Y27036D01*
X205740Y27362D01*
D02*
G37*
G36*
X180340D02*
X177860Y27036D01*
X175549Y26078D01*
X173565Y24555D01*
X172042Y22571D01*
X171084Y20260D01*
X170758Y17780D01*
X171084Y15300D01*
X172042Y12989D01*
X173565Y11005D01*
X175549Y9482D01*
X177860Y8525D01*
X180340Y8198D01*
X182820Y8525D01*
X185131Y9482D01*
X187115Y11005D01*
X188638Y12989D01*
X189596Y15300D01*
X189922Y17780D01*
X189596Y20260D01*
X188638Y22571D01*
X187115Y24555D01*
X185131Y26078D01*
X182820Y27036D01*
X180340Y27362D01*
D02*
G37*
G36*
X154940D02*
X152460Y27036D01*
X150149Y26078D01*
X148165Y24555D01*
X146642Y22571D01*
X145684Y20260D01*
X145358Y17780D01*
X145684Y15300D01*
X146642Y12989D01*
X148165Y11005D01*
X150149Y9482D01*
X152460Y8525D01*
X154940Y8198D01*
X157420Y8525D01*
X159731Y9482D01*
X161715Y11005D01*
X163238Y12989D01*
X164195Y15300D01*
X164522Y17780D01*
X164195Y20260D01*
X163238Y22571D01*
X161715Y24555D01*
X159731Y26078D01*
X157420Y27036D01*
X154940Y27362D01*
D02*
G37*
G36*
X139499Y16510D02*
X130810D01*
Y7821D01*
X132161Y7998D01*
X134603Y9010D01*
X136701Y10619D01*
X138310Y12717D01*
X139322Y15159D01*
X139499Y16510D01*
D02*
G37*
G36*
X128270D02*
X119581D01*
X119758Y15159D01*
X120770Y12717D01*
X122379Y10619D01*
X124477Y9010D01*
X126919Y7998D01*
X128270Y7821D01*
Y16510D01*
D02*
G37*
G36*
X342780D02*
X334010D01*
Y7740D01*
X342780D01*
Y16510D01*
D02*
G37*
G36*
X331470D02*
X322700D01*
Y7740D01*
X331470D01*
Y16510D01*
D02*
G37*
G36*
X568300Y15850D02*
X549300D01*
Y-3150D01*
X568300D01*
Y15850D01*
D02*
G37*
%LPD*%
D17*
X444010Y100800D02*
Y101625D01*
X433835Y111800D02*
X444010Y101625D01*
X373260Y111800D02*
X433835D01*
X208260Y204800D02*
X238510Y235050D01*
Y321300D01*
X233010Y333050D02*
X235010Y331050D01*
Y324800D02*
Y331050D01*
Y324800D02*
X238510Y321300D01*
X223010Y320800D02*
X228010Y315800D01*
X213010Y320800D02*
X223010D01*
X403010Y167800D02*
Y185800D01*
X401510Y166300D02*
X403010Y167800D01*
X383010Y125800D02*
Y143800D01*
X384510Y145300D01*
D18*
X135890Y101600D02*
X173190Y64300D01*
X327760D01*
X380010Y100800D02*
X397010D01*
X379010Y99800D02*
X380010Y100800D01*
X363010Y336550D02*
X363010Y336550D01*
X394010D01*
X394010Y336550D01*
X274553Y119136D02*
X275066Y118623D01*
X287057D01*
X287570Y118110D01*
X477510Y269300D02*
X529860Y321650D01*
X603550D01*
X401510Y166300D02*
X402010Y165800D01*
X413010D01*
X384010Y145800D02*
X384510Y145300D01*
X373010Y145800D02*
X384010D01*
D19*
X313260Y175300D02*
Y442550D01*
Y175300D02*
X326760D01*
X340760Y161300D01*
X337010Y116300D02*
X340760Y120050D01*
Y161300D01*
X324260Y116300D02*
X337010D01*
X254260Y332425D02*
X254760Y332925D01*
X254260Y319050D02*
Y332425D01*
X16872Y219019D02*
Y339128D01*
X15602Y217749D02*
X16872Y219019D01*
X15602Y217208D02*
Y217749D01*
X5188Y206519D02*
Y326628D01*
X3918Y205249D02*
X5188Y206519D01*
X3918Y204708D02*
Y205249D01*
X324260Y116300D02*
Y124800D01*
X213585Y542225D02*
X313260Y442550D01*
X211260Y544550D02*
X212085D01*
X213585Y543050D01*
Y542225D02*
Y543050D01*
X254760Y332925D02*
X264135D01*
X249135D02*
X254760D01*
X249010Y333050D02*
X249135Y332925D01*
X264135D02*
X264260Y332800D01*
D35*
X249010Y333050D02*
D03*
X233010D02*
D03*
X313760Y227800D02*
D03*
X329760D02*
D03*
X428010Y100800D02*
D03*
X444010D02*
D03*
X397010D02*
D03*
X413010D02*
D03*
X264260Y332800D02*
D03*
X280260Y332800D02*
D03*
D38*
X394010Y336550D02*
D03*
Y352550D02*
D03*
X363010Y336550D02*
D03*
Y352550D02*
D03*
X211260Y560550D02*
D03*
Y544550D02*
D03*
X213010Y320800D02*
D03*
Y304800D02*
D03*
D39*
X260583Y118882D02*
D03*
X274553Y119136D02*
D03*
X403010Y185800D02*
D03*
X389040Y185546D02*
D03*
X396980Y126054D02*
D03*
X383010Y125800D02*
D03*
X349010Y99050D02*
D03*
X362980Y99304D02*
D03*
X617520Y321904D02*
D03*
X603550Y321650D02*
D03*
D47*
X191510Y574800D02*
D03*
X191764Y560830D02*
D03*
X362756Y189270D02*
D03*
X363010Y175300D02*
D03*
X324006Y138770D02*
D03*
X324260Y124800D02*
D03*
D97*
X362830Y89480D02*
X378560Y73750D01*
X490960D02*
X502010Y84800D01*
X-6990Y459800D02*
X100510Y567300D01*
X-6740Y460004D02*
X208260Y245004D01*
Y204800D02*
Y245004D01*
X100510Y567300D02*
Y656050D01*
X378560Y73750D02*
X490210D01*
X490960D01*
X502010Y84800D02*
Y108300D01*
X495260Y115050D02*
X502010Y108300D01*
X495260Y115050D02*
Y227550D01*
X566760Y643300D02*
X590510Y619550D01*
Y374800D02*
Y619550D01*
X397830Y560785D02*
X462995D01*
X211260D02*
X397830D01*
X191764D02*
X211260D01*
X166090D02*
X191764D01*
X536010Y643300D02*
X566760D01*
X515760Y644550D02*
X534760D01*
X536010Y643300D01*
X504510Y633300D02*
X515760Y644550D01*
X504510Y602300D02*
Y633300D01*
X462995Y560785D02*
X504510Y602300D01*
D98*
X112010Y204800D02*
X208260D01*
X53352Y229708D02*
X87102D01*
X112010Y204800D01*
X465260Y158050D02*
X475260Y148050D01*
X465260Y158050D02*
Y278800D01*
X454510Y152550D02*
X475760Y131300D01*
X454510Y152550D02*
Y287714D01*
X413010Y100800D02*
X423010D01*
D99*
X336540Y414020D02*
X494030D01*
D100*
X297510Y157550D02*
Y158550D01*
Y157550D02*
X317010Y138050D01*
X323286D01*
X324006Y138770D01*
X362920Y89570D02*
Y166960D01*
X362830Y89480D02*
X362920Y89570D01*
X329760Y228625D02*
X402260Y301125D01*
X329760Y200300D02*
X363010Y167050D01*
X362920Y166960D02*
X363010Y167050D01*
Y175300D01*
X329760Y200300D02*
Y227800D01*
Y228625D01*
X402260Y301125D02*
Y302050D01*
X414260Y314050D02*
Y347800D01*
X402260Y302050D02*
X414260Y314050D01*
X394010Y352550D02*
X409510D01*
X414260Y347800D01*
X423010Y90910D02*
Y100800D01*
X422830Y90730D02*
X423010Y90910D01*
D101*
X558800Y6350D02*
D03*
Y289560D02*
D03*
X536090Y383130D02*
D03*
X166090Y408385D02*
D03*
D102*
X558800Y31750D02*
D03*
Y57150D02*
D03*
X307340Y17780D02*
D03*
X281940D02*
D03*
X256540D02*
D03*
X231140D02*
D03*
X205740D02*
D03*
X180340D02*
D03*
X154940D02*
D03*
X129540D02*
D03*
X558800Y264160D02*
D03*
Y238760D02*
D03*
Y213360D02*
D03*
Y187960D02*
D03*
Y162560D02*
D03*
Y137160D02*
D03*
Y111760D02*
D03*
Y86360D02*
D03*
X500380Y19050D02*
D03*
X525780D02*
D03*
X443230Y601980D02*
D03*
X417830D02*
D03*
X232410Y600710D02*
D03*
X257810D02*
D03*
X536090Y611730D02*
D03*
Y586330D02*
D03*
Y560930D02*
D03*
Y535530D02*
D03*
Y510130D02*
D03*
Y484730D02*
D03*
Y459330D02*
D03*
Y433930D02*
D03*
Y408530D02*
D03*
X166090Y433785D02*
D03*
Y459185D02*
D03*
Y484585D02*
D03*
Y509985D02*
D03*
Y535385D02*
D03*
Y560785D02*
D03*
Y586185D02*
D03*
Y611585D02*
D03*
X365760Y19050D02*
D03*
X391160D02*
D03*
X416560D02*
D03*
D103*
X332740Y17780D02*
D03*
X474980Y19050D02*
D03*
X468630Y601980D02*
D03*
X283210Y600710D02*
D03*
X441960Y19050D02*
D03*
D104*
X614540Y519420D02*
D03*
X614540Y479420D02*
D03*
D105*
X637540Y471170D02*
D03*
Y527670D02*
D03*
D106*
X135890Y184150D02*
D03*
X186690Y101600D02*
D03*
D107*
X135890Y234950D02*
D03*
D108*
Y101600D02*
D03*
D109*
X494030Y414020D02*
D03*
D110*
Y429020D02*
D03*
D111*
X77470Y106680D02*
D03*
D112*
Y81280D02*
D03*
D113*
X60960Y2540D02*
D03*
D114*
X86360D02*
D03*
D115*
X324260Y116300D02*
D03*
X317010Y138050D02*
D03*
X287570Y118110D02*
D03*
X362830Y89480D02*
D03*
X228010Y315800D02*
D03*
X254260Y319050D02*
D03*
X356260Y255300D02*
D03*
X208260Y204800D02*
D03*
X53352Y229708D02*
D03*
X16872Y339128D02*
D03*
X5188Y326628D02*
D03*
X3918Y204708D02*
D03*
X15602Y217208D02*
D03*
X313260Y175300D02*
D03*
X378510Y336550D02*
D03*
X363010Y167050D02*
D03*
X490210Y73750D02*
D03*
X495260Y227550D02*
D03*
X590510Y374800D02*
D03*
X397830Y560730D02*
D03*
X591510Y321800D02*
D03*
X477510Y269300D02*
D03*
X465260Y278800D02*
D03*
X454510Y287714D02*
D03*
X422830Y90730D02*
D03*
X475260Y148050D02*
D03*
X475760Y131300D02*
D03*
X413010Y165800D02*
D03*
X373010Y145800D02*
D03*
D116*
X373260Y111800D02*
D03*
X327760Y64300D02*
D03*
X379010Y99800D02*
D03*
X-6740Y460004D02*
D03*
X100510Y656050D02*
D03*
D117*
X336540Y414020D02*
D03*
D118*
X632460Y638810D02*
D03*
X5080Y612140D02*
D03*
X0Y0D02*
D03*
X568260Y-53700D02*
D03*
D119*
X384510Y166300D02*
D03*
Y145300D02*
D03*
X401510D02*
D03*
Y166300D02*
D03*
D120*
X487952Y90499D02*
D03*
X498010Y80800D02*
D03*
D121*
X509760Y242550D02*
D03*
X500061Y232492D02*
D03*
M02*
