G04*
G04 #@! TF.GenerationSoftware,Altium Limited,Altium Designer,20.0.13 (296)*
G04*
G04 Layer_Color=16711935*
%FSLAX44Y44*%
%MOMM*%
G71*
G01*
G75*
%ADD57R,1.0032X1.1682*%
%ADD60R,1.1682X1.0032*%
%ADD61R,0.9652X0.9652*%
%ADD69R,0.9652X0.9652*%
%ADD79R,1.7032X1.7032*%
%ADD80C,1.7032*%
%ADD81R,1.7032X1.7032*%
%ADD82C,0.8032*%
%ADD83O,2.7032X1.4032*%
%ADD84C,2.1032*%
%ADD85R,2.1032X2.1032*%
%ADD86R,2.1032X2.1032*%
%ADD87R,1.4032X1.4032*%
%ADD88C,1.4032*%
%ADD89R,2.7032X2.0032*%
%ADD90O,2.7032X2.0032*%
%ADD91R,2.0032X2.7032*%
%ADD92O,2.0032X2.7032*%
%ADD93C,0.9032*%
%ADD94C,1.1032*%
%ADD95C,1.2032*%
%ADD96C,5.2032*%
%ADD122R,1.4032X1.5032*%
%ADD123P,1.3650X4X360.0*%
%ADD124P,1.3650X4X270.0*%
D57*
X249010Y333050D02*
D03*
X233010D02*
D03*
X313760Y227800D02*
D03*
X329760D02*
D03*
X428010Y100800D02*
D03*
X444010D02*
D03*
X397010D02*
D03*
X413010D02*
D03*
X264260Y332800D02*
D03*
X280260Y332800D02*
D03*
D60*
X394010Y336550D02*
D03*
Y352550D02*
D03*
X363010Y336550D02*
D03*
Y352550D02*
D03*
X211260Y560550D02*
D03*
Y544550D02*
D03*
X213010Y320800D02*
D03*
Y304800D02*
D03*
D61*
X260583Y118882D02*
D03*
X274553Y119136D02*
D03*
X403010Y185800D02*
D03*
X389040Y185546D02*
D03*
X396980Y126054D02*
D03*
X383010Y125800D02*
D03*
X349010Y99050D02*
D03*
X362980Y99304D02*
D03*
X617520Y321904D02*
D03*
X603550Y321650D02*
D03*
D69*
X191510Y574800D02*
D03*
X191764Y560830D02*
D03*
X362756Y189270D02*
D03*
X363010Y175300D02*
D03*
X324006Y138770D02*
D03*
X324260Y124800D02*
D03*
D79*
X558800Y6350D02*
D03*
Y289560D02*
D03*
X536090Y383130D02*
D03*
X166090Y408385D02*
D03*
D80*
X558800Y31750D02*
D03*
Y57150D02*
D03*
X307340Y17780D02*
D03*
X281940D02*
D03*
X256540D02*
D03*
X231140D02*
D03*
X205740D02*
D03*
X180340D02*
D03*
X154940D02*
D03*
X129540D02*
D03*
X558800Y264160D02*
D03*
Y238760D02*
D03*
Y213360D02*
D03*
Y187960D02*
D03*
Y162560D02*
D03*
Y137160D02*
D03*
Y111760D02*
D03*
Y86360D02*
D03*
X500380Y19050D02*
D03*
X525780D02*
D03*
X443230Y601980D02*
D03*
X417830D02*
D03*
X232410Y600710D02*
D03*
X257810D02*
D03*
X536090Y611730D02*
D03*
Y586330D02*
D03*
Y560930D02*
D03*
Y535530D02*
D03*
Y510130D02*
D03*
Y484730D02*
D03*
Y459330D02*
D03*
Y433930D02*
D03*
Y408530D02*
D03*
X166090Y433785D02*
D03*
Y459185D02*
D03*
Y484585D02*
D03*
Y509985D02*
D03*
Y535385D02*
D03*
Y560785D02*
D03*
Y586185D02*
D03*
Y611585D02*
D03*
X365760Y19050D02*
D03*
X391160D02*
D03*
X416560D02*
D03*
D81*
X332740Y17780D02*
D03*
X474980Y19050D02*
D03*
X468630Y601980D02*
D03*
X283210Y600710D02*
D03*
X441960Y19050D02*
D03*
D82*
X614540Y519420D02*
D03*
X614540Y479420D02*
D03*
D83*
X637540Y471170D02*
D03*
Y527670D02*
D03*
D84*
X135890Y184150D02*
D03*
X186690Y101600D02*
D03*
D85*
X135890Y234950D02*
D03*
D86*
Y101600D02*
D03*
D87*
X494030Y414020D02*
D03*
D88*
Y429020D02*
D03*
D89*
X77470Y106680D02*
D03*
D90*
Y81280D02*
D03*
D91*
X60960Y2540D02*
D03*
D92*
X86360D02*
D03*
D93*
X324260Y116300D02*
D03*
X317010Y138050D02*
D03*
X287570Y118110D02*
D03*
X362830Y89480D02*
D03*
X228010Y315800D02*
D03*
X254260Y319050D02*
D03*
X356260Y255300D02*
D03*
X208260Y204800D02*
D03*
X53352Y229708D02*
D03*
X16872Y339128D02*
D03*
X5188Y326628D02*
D03*
X3918Y204708D02*
D03*
X15602Y217208D02*
D03*
X313260Y175300D02*
D03*
X378510Y336550D02*
D03*
X363010Y167050D02*
D03*
X490210Y73750D02*
D03*
X495260Y227550D02*
D03*
X590510Y374800D02*
D03*
X397830Y560730D02*
D03*
X591510Y321800D02*
D03*
X477510Y269300D02*
D03*
X465260Y278800D02*
D03*
X454510Y287714D02*
D03*
X422830Y90730D02*
D03*
X475260Y148050D02*
D03*
X475760Y131300D02*
D03*
X413010Y165800D02*
D03*
X373010Y145800D02*
D03*
D94*
X373260Y111800D02*
D03*
X327760Y64300D02*
D03*
X379010Y99800D02*
D03*
X-6740Y460004D02*
D03*
X100510Y656050D02*
D03*
D95*
X336540Y414020D02*
D03*
D96*
X632460Y638810D02*
D03*
X5080Y612140D02*
D03*
X0Y0D02*
D03*
X568260Y-53700D02*
D03*
D122*
X384510Y166300D02*
D03*
Y145300D02*
D03*
X401510D02*
D03*
Y166300D02*
D03*
D123*
X487952Y90499D02*
D03*
X498010Y80800D02*
D03*
D124*
X509760Y242550D02*
D03*
X500061Y232492D02*
D03*
M02*
