G04*
G04 #@! TF.GenerationSoftware,Altium Limited,Altium Designer,20.0.13 (296)*
G04*
G04 Layer_Color=255*
%FSLAX44Y44*%
%MOMM*%
G71*
G01*
G75*
%ADD35R,0.8000X0.9650*%
%ADD36R,1.2700X0.9144*%
%ADD37R,0.9144X0.9144*%
%ADD38R,0.9650X0.8000*%
%ADD39R,0.7620X0.7620*%
%ADD40R,1.4750X0.3000*%
%ADD41R,0.3000X1.4750*%
%ADD42R,1.4000X0.4000*%
%ADD43R,1.0000X1.5000*%
%ADD44R,2.0000X3.0000*%
%ADD45R,2.0000X1.5000*%
%ADD46R,1.2700X0.8890*%
%ADD47R,0.7620X0.7620*%
%ADD48R,1.0500X0.6000*%
%ADD49R,3.0000X1.5000*%
%ADD50R,3.0000X2.0000*%
%ADD51R,1.2700X1.5240*%
%ADD52R,0.9144X1.2700*%
%ADD53R,0.9144X0.9144*%
%ADD54R,0.8890X1.2700*%
%ADD55R,1.6000X0.8000*%
%ADD56R,3.0000X2.0000*%
%ADD101R,1.5000X1.5000*%
%ADD102C,1.5000*%
%ADD103R,1.5000X1.5000*%
%ADD104C,0.6000*%
%ADD105O,2.5000X1.2000*%
%ADD106C,1.9000*%
%ADD107R,1.9000X1.9000*%
%ADD108R,1.9000X1.9000*%
%ADD109R,1.2000X1.2000*%
%ADD110C,1.2000*%
%ADD111R,2.5000X1.8000*%
%ADD112O,2.5000X1.8000*%
%ADD113R,1.8000X2.5000*%
%ADD114O,1.8000X2.5000*%
D35*
X84330Y404368D02*
D03*
X100330D02*
D03*
X584200Y483870D02*
D03*
X568200D02*
D03*
X469520Y303960D02*
D03*
X485520D02*
D03*
X469520Y285050D02*
D03*
X485520D02*
D03*
X135888Y656590D02*
D03*
X119888D02*
D03*
X71260Y655800D02*
D03*
X87260D02*
D03*
X112010Y580800D02*
D03*
X128010D02*
D03*
X44958Y581660D02*
D03*
X60958D02*
D03*
X325010Y273050D02*
D03*
X341010D02*
D03*
X101090Y467868D02*
D03*
X85090D02*
D03*
X568200Y509270D02*
D03*
X584200D02*
D03*
D36*
X29210Y413258D02*
D03*
X30301Y474878D02*
D03*
D37*
X49530Y422656D02*
D03*
Y403606D02*
D03*
X50621Y465226D02*
D03*
Y484276D02*
D03*
D38*
X-6740Y430550D02*
D03*
Y446550D02*
D03*
X113010Y560800D02*
D03*
Y544800D02*
D03*
X44958Y563370D02*
D03*
X44958Y547370D02*
D03*
X-6350Y473458D02*
D03*
Y489458D02*
D03*
X67310Y483868D02*
D03*
Y467868D02*
D03*
Y420878D02*
D03*
Y404878D02*
D03*
D39*
X246980Y270546D02*
D03*
X233010Y270800D02*
D03*
X341510Y249550D02*
D03*
X355480Y249296D02*
D03*
X498480Y51796D02*
D03*
X484510Y52050D02*
D03*
X284480Y220980D02*
D03*
X270510Y221234D02*
D03*
X265430Y202946D02*
D03*
X251460Y203200D02*
D03*
D40*
X495210Y181130D02*
D03*
Y171130D02*
D03*
Y176130D02*
D03*
X495210Y186130D02*
D03*
X495210Y211130D02*
D03*
Y206130D02*
D03*
Y201130D02*
D03*
Y196130D02*
D03*
Y191130D02*
D03*
Y166130D02*
D03*
Y161130D02*
D03*
X495210Y156130D02*
D03*
Y151130D02*
D03*
Y146130D02*
D03*
X495210Y141130D02*
D03*
Y136130D02*
D03*
Y131130D02*
D03*
Y126130D02*
D03*
Y121130D02*
D03*
X495210Y116130D02*
D03*
X495210Y111130D02*
D03*
Y106130D02*
D03*
Y101130D02*
D03*
Y96130D02*
D03*
Y91130D02*
D03*
X340450D02*
D03*
Y96130D02*
D03*
Y101130D02*
D03*
Y106130D02*
D03*
Y111130D02*
D03*
X340450Y116130D02*
D03*
X340450Y121130D02*
D03*
Y126130D02*
D03*
Y131130D02*
D03*
Y136130D02*
D03*
Y141130D02*
D03*
X340450Y146130D02*
D03*
Y151130D02*
D03*
Y156130D02*
D03*
X340450Y161130D02*
D03*
Y166130D02*
D03*
Y171130D02*
D03*
Y176130D02*
D03*
Y181130D02*
D03*
X340450Y186130D02*
D03*
X340450Y191130D02*
D03*
Y196130D02*
D03*
Y201130D02*
D03*
Y206130D02*
D03*
Y211130D02*
D03*
D41*
X357830Y228510D02*
D03*
X362830D02*
D03*
X367830D02*
D03*
X372830D02*
D03*
X377830D02*
D03*
X382830Y228510D02*
D03*
X387830Y228510D02*
D03*
X392830D02*
D03*
X397830D02*
D03*
X402830D02*
D03*
X407830D02*
D03*
X412830Y228510D02*
D03*
X417830D02*
D03*
X422830D02*
D03*
X427830Y228510D02*
D03*
X432830D02*
D03*
X437830D02*
D03*
X442830D02*
D03*
X447830D02*
D03*
X452830Y228510D02*
D03*
X457830Y228510D02*
D03*
X462830D02*
D03*
X467830D02*
D03*
X472830D02*
D03*
X477830D02*
D03*
Y73750D02*
D03*
X472830D02*
D03*
X467830D02*
D03*
X462830D02*
D03*
X457830D02*
D03*
X452830Y73750D02*
D03*
X447830Y73750D02*
D03*
X442830D02*
D03*
X437830D02*
D03*
X432830D02*
D03*
X427830D02*
D03*
X422830Y73750D02*
D03*
X417830D02*
D03*
X412830D02*
D03*
X407830Y73750D02*
D03*
X402830D02*
D03*
X397830D02*
D03*
X392830D02*
D03*
X387830D02*
D03*
X382830Y73750D02*
D03*
X377830Y73750D02*
D03*
X372830D02*
D03*
X367830D02*
D03*
X362830D02*
D03*
X357830D02*
D03*
D42*
X610814Y505897D02*
D03*
Y499420D02*
D03*
X610814Y492943D02*
D03*
X610814Y486466D02*
D03*
Y512374D02*
D03*
D43*
X612484Y531420D02*
D03*
Y467420D02*
D03*
D44*
X635000Y431800D02*
D03*
X584200D02*
D03*
D45*
X571491Y370812D02*
D03*
X650819Y371012D02*
D03*
X651128Y323120D02*
D03*
X571800Y322920D02*
D03*
X226742Y117910D02*
D03*
X306070Y118110D02*
D03*
D46*
X511250Y283613D02*
D03*
X529030Y283613D02*
D03*
X511250Y303960D02*
D03*
X529030Y303960D02*
D03*
X119887Y636205D02*
D03*
X137667Y636205D02*
D03*
X52578Y637540D02*
D03*
X70358Y637540D02*
D03*
D47*
X517764Y231520D02*
D03*
X517510Y217550D02*
D03*
X297756Y161330D02*
D03*
X298010Y175300D02*
D03*
X233760Y163300D02*
D03*
X234014Y177270D02*
D03*
X209550Y242570D02*
D03*
X209296Y228600D02*
D03*
D48*
X279578Y176049D02*
D03*
Y157049D02*
D03*
X251078D02*
D03*
Y166549D02*
D03*
Y176049D02*
D03*
X228050Y288950D02*
D03*
X228050Y298450D02*
D03*
X228050Y307950D02*
D03*
X254550D02*
D03*
X254550Y298450D02*
D03*
X254550Y288950D02*
D03*
D49*
X238761Y250759D02*
D03*
Y226759D02*
D03*
D50*
X284480Y297180D02*
D03*
Y246380D02*
D03*
X581660Y561340D02*
D03*
Y612140D02*
D03*
D51*
X198010Y295800D02*
D03*
X198010Y272940D02*
D03*
D52*
X120650Y618490D02*
D03*
X53340Y619760D02*
D03*
D53*
X130048Y598170D02*
D03*
X110998D02*
D03*
X62738Y599440D02*
D03*
X43688D02*
D03*
D54*
X12700Y491998D02*
D03*
X12700Y474218D02*
D03*
X12765Y431037D02*
D03*
X12765Y413257D02*
D03*
D55*
X34456Y229708D02*
D03*
Y217208D02*
D03*
X34456Y204708D02*
D03*
X34456Y192208D02*
D03*
X35726Y351628D02*
D03*
X35726Y339128D02*
D03*
Y326628D02*
D03*
Y314128D02*
D03*
D56*
X6350Y257140D02*
D03*
Y164500D02*
D03*
X7620Y379060D02*
D03*
Y286420D02*
D03*
D101*
X558800Y6350D02*
D03*
Y289560D02*
D03*
X536090Y383130D02*
D03*
X166090Y408385D02*
D03*
D102*
X558800Y31750D02*
D03*
Y57150D02*
D03*
X307340Y17780D02*
D03*
X281940D02*
D03*
X256540D02*
D03*
X231140D02*
D03*
X205740D02*
D03*
X180340D02*
D03*
X154940D02*
D03*
X129540D02*
D03*
X558800Y264160D02*
D03*
Y238760D02*
D03*
Y213360D02*
D03*
Y187960D02*
D03*
Y162560D02*
D03*
Y137160D02*
D03*
Y111760D02*
D03*
Y86360D02*
D03*
X500380Y19050D02*
D03*
X525780D02*
D03*
X443230Y601980D02*
D03*
X417830D02*
D03*
X232410Y600710D02*
D03*
X257810D02*
D03*
X536090Y611730D02*
D03*
Y586330D02*
D03*
Y560930D02*
D03*
Y535530D02*
D03*
Y510130D02*
D03*
Y484730D02*
D03*
Y459330D02*
D03*
Y433930D02*
D03*
Y408530D02*
D03*
X166090Y433785D02*
D03*
Y459185D02*
D03*
Y484585D02*
D03*
Y509985D02*
D03*
Y535385D02*
D03*
Y560785D02*
D03*
Y586185D02*
D03*
Y611585D02*
D03*
X365760Y19050D02*
D03*
X391160D02*
D03*
X416560D02*
D03*
D103*
X332740Y17780D02*
D03*
X474980Y19050D02*
D03*
X468630Y601980D02*
D03*
X283210Y600710D02*
D03*
X441960Y19050D02*
D03*
D104*
X614540Y519420D02*
D03*
X614540Y479420D02*
D03*
D105*
X637540Y471170D02*
D03*
Y527670D02*
D03*
D106*
X135890Y184150D02*
D03*
X186690Y101600D02*
D03*
D107*
X135890Y234950D02*
D03*
D108*
Y101600D02*
D03*
D109*
X494030Y414020D02*
D03*
D110*
Y429020D02*
D03*
D111*
X77470Y106680D02*
D03*
D112*
Y81280D02*
D03*
D113*
X60960Y2540D02*
D03*
D114*
X86360D02*
D03*
M02*
