G04*
G04 #@! TF.GenerationSoftware,Altium Limited,Altium Designer,20.0.13 (296)*
G04*
G04 Layer_Color=255*
%FSLAX44Y44*%
%MOMM*%
G71*
G01*
G75*
%ADD35R,0.8000X0.9650*%
%ADD38R,0.9650X0.8000*%
%ADD39R,0.7620X0.7620*%
%ADD47R,0.7620X0.7620*%
%ADD101R,1.5000X1.5000*%
%ADD102C,1.5000*%
%ADD103R,1.5000X1.5000*%
%ADD104C,0.6000*%
%ADD105O,2.5000X1.2000*%
%ADD106C,1.9000*%
%ADD107R,1.9000X1.9000*%
%ADD108R,1.9000X1.9000*%
%ADD109R,1.2000X1.2000*%
%ADD110C,1.2000*%
%ADD111R,2.5000X1.8000*%
%ADD112O,2.5000X1.8000*%
%ADD113R,1.8000X2.5000*%
%ADD114O,1.8000X2.5000*%
%ADD119R,1.2000X1.3000*%
%ADD120P,1.0776X4X360.0*%
%ADD121P,1.0776X4X270.0*%
D35*
X249010Y333050D02*
D03*
X233010D02*
D03*
X313760Y227800D02*
D03*
X329760D02*
D03*
X428010Y100800D02*
D03*
X444010D02*
D03*
X397010D02*
D03*
X413010D02*
D03*
X264260Y332800D02*
D03*
X280260Y332800D02*
D03*
D38*
X394010Y336550D02*
D03*
Y352550D02*
D03*
X363010Y336550D02*
D03*
Y352550D02*
D03*
X211260Y560550D02*
D03*
Y544550D02*
D03*
X213010Y320800D02*
D03*
Y304800D02*
D03*
D39*
X260583Y118882D02*
D03*
X274553Y119136D02*
D03*
X403010Y185800D02*
D03*
X389040Y185546D02*
D03*
X396980Y126054D02*
D03*
X383010Y125800D02*
D03*
X349010Y99050D02*
D03*
X362980Y99304D02*
D03*
X617520Y321904D02*
D03*
X603550Y321650D02*
D03*
D47*
X191510Y574800D02*
D03*
X191764Y560830D02*
D03*
X362756Y189270D02*
D03*
X363010Y175300D02*
D03*
X324006Y138770D02*
D03*
X324260Y124800D02*
D03*
D101*
X558800Y6350D02*
D03*
Y289560D02*
D03*
X536090Y383130D02*
D03*
X166090Y408385D02*
D03*
D102*
X558800Y31750D02*
D03*
Y57150D02*
D03*
X307340Y17780D02*
D03*
X281940D02*
D03*
X256540D02*
D03*
X231140D02*
D03*
X205740D02*
D03*
X180340D02*
D03*
X154940D02*
D03*
X129540D02*
D03*
X558800Y264160D02*
D03*
Y238760D02*
D03*
Y213360D02*
D03*
Y187960D02*
D03*
Y162560D02*
D03*
Y137160D02*
D03*
Y111760D02*
D03*
Y86360D02*
D03*
X500380Y19050D02*
D03*
X525780D02*
D03*
X443230Y601980D02*
D03*
X417830D02*
D03*
X232410Y600710D02*
D03*
X257810D02*
D03*
X536090Y611730D02*
D03*
Y586330D02*
D03*
Y560930D02*
D03*
Y535530D02*
D03*
Y510130D02*
D03*
Y484730D02*
D03*
Y459330D02*
D03*
Y433930D02*
D03*
Y408530D02*
D03*
X166090Y433785D02*
D03*
Y459185D02*
D03*
Y484585D02*
D03*
Y509985D02*
D03*
Y535385D02*
D03*
Y560785D02*
D03*
Y586185D02*
D03*
Y611585D02*
D03*
X365760Y19050D02*
D03*
X391160D02*
D03*
X416560D02*
D03*
D103*
X332740Y17780D02*
D03*
X474980Y19050D02*
D03*
X468630Y601980D02*
D03*
X283210Y600710D02*
D03*
X441960Y19050D02*
D03*
D104*
X614540Y519420D02*
D03*
X614540Y479420D02*
D03*
D105*
X637540Y471170D02*
D03*
Y527670D02*
D03*
D106*
X135890Y184150D02*
D03*
X186690Y101600D02*
D03*
D107*
X135890Y234950D02*
D03*
D108*
Y101600D02*
D03*
D109*
X494030Y414020D02*
D03*
D110*
Y429020D02*
D03*
D111*
X77470Y106680D02*
D03*
D112*
Y81280D02*
D03*
D113*
X60960Y2540D02*
D03*
D114*
X86360D02*
D03*
D119*
X384510Y166300D02*
D03*
Y145300D02*
D03*
X401510D02*
D03*
Y166300D02*
D03*
D120*
X487952Y90499D02*
D03*
X498010Y80800D02*
D03*
D121*
X509760Y242550D02*
D03*
X500061Y232492D02*
D03*
M02*
