M48
;Layer_Color=9474304
;FILE_FORMAT=4:4
METRIC,TZ
;TYPE=PLATED
T1F00S00C0.3000
T2F00S00C0.4000
T4F00S00C0.6000
T5F00S00C0.9000
T6F00S00C1.0000
T7F00S00C3.0000
;TYPE=NON_PLATED
T8F00S00C0.7000
%
T01
X246750Y118000
X287570Y118110
X324260Y116300
X317010Y138050
X313260Y175300
X363010Y167050
X373010Y145800
X413010Y165800
X475260Y148050
X475760Y131300
X490210Y73750
X422830Y90730
X362830Y89480
X208260Y204800
X3918Y204708
X15602Y217208
X53352Y229708
X5188Y326628
X16872Y339128
X228010Y315800
X213500Y301000
X254260Y319050
X378510Y336550
X356260Y255300
X454510Y287714
X465260Y278800
X477510Y269300
X495260Y227550
X397830Y560730
X590510Y374800
X591510Y321800
T02
X327760Y64300
X379010Y99800
X373260Y111800
X-6740Y460004
X336540Y414020
X100510Y656050
T04
X494030Y414020
Y429020
T05
X525780Y19050
X558800Y31750
Y57150
Y86360
Y111760
Y137160
Y162560
Y187960
Y6350
X500380Y19050
X474980
X441960
X416560
X391160
X365760
X332740Y17780
X307340
X281940
X256540
X231140
X205740
X180340
X154940
X129540
X166090Y408385
Y433785
Y459185
Y484585
Y509985
Y535385
Y560785
Y586185
X232410Y600710
X257810
X283210
X417830Y601980
X443230
X468630
X536090Y586330
Y560930
Y535530
Y510130
Y484730
Y459330
Y433930
Y408530
Y383130
X558800Y289560
Y264160
Y238760
Y213360
X536090Y611730
X166090Y611585
T06
X135890Y101600
X186690
X135890Y184150
X77470Y106680
Y81280
X86360Y2540
X60960
X135890Y234950
T07
X568260Y-53700
X0Y0
X632460Y638810
X5080Y612140
T08
X614540Y479420
X614540Y519420
M30
